<?xml version="1.0" encoding="utf-8"?>
<!-- Generator: Adobe Illustrator 22.1.0, SVG Export Plug-In . SVG Version: 6.00 Build 0)  -->
<svg version="1.1" xmlns="http://www.w3.org/2000/svg" xmlns:xlink="http://www.w3.org/1999/xlink" x="0px" y="0px"
	 viewBox="0 0 1400 600" style="enable-background:new 0 0 1400 600;" xml:space="preserve">
<style type="text/css">
	.st0{clip-path:url(#SVGID_2_);}
	.st1{fill:#E8ECC8;}
	.st2{fill:#CBD4AD;}
	.st3{fill:#414833;}
	.st4{display:none;}
	.st5{display:inline;}
	.st6{fill:#E6CCB2;stroke:#414833;stroke-width:1.778;stroke-linecap:round;stroke-linejoin:round;stroke-miterlimit:10;}
	.st7{fill:#FFFFFF;}
	.st8{fill:#D3A273;stroke:#414833;stroke-width:0.889;stroke-miterlimit:10;}
	.st9{fill:#F9ECCC;}
	.st10{fill:#E6CCB2;stroke:#414833;stroke-width:1.1269;stroke-linecap:round;stroke-linejoin:round;stroke-miterlimit:10;}
	.st11{opacity:0.2;fill:#DDBEA9;}
	.st12{fill:#6C757D;stroke:#414833;stroke-width:0.889;stroke-linecap:round;stroke-linejoin:round;stroke-miterlimit:10;}
	.st13{fill:#F8AD40;}
	.st14{fill:#EC992E;}
	.st15{fill:#FBCF94;}
	.st16{fill:#EE5A29;}
	.st17{fill:#F6D7A9;}
	.st18{fill:#D3A273;}
	.st19{opacity:0.3;fill:#7F5539;}
	.st20{fill:#E7C08C;}
	.st21{fill:none;stroke:#414833;stroke-width:1.778;stroke-linecap:round;stroke-linejoin:round;stroke-miterlimit:10;}
</style>
<g id="圖層_1">
	<g>
		<defs>
			<rect id="SVGID_1_" width="1400" height="600"/>
		</defs>
		<clipPath id="SVGID_2_">
			<use xlink:href="#SVGID_1_"  style="overflow:visible;"/>
		</clipPath>
		<g class="st0">
			<rect class="st1" width="1400" height="600"/>
		</g>
		<g class="st0">
			<path class="st2" d="M1403-5h-289c1.6,30.1,8,57.4,40.6,63.8c53.1,10.6,108.1-8.3,161.9-2.1c10.5,1.2,21.8,3.8,28.7,11.9
				c12.3,14.3,4.4,36.7-6.9,51.8c-11.2,15.2-25.9,30.1-26.4,48.9c-0.3,13.6,7.4,26.5,18,35.1c10.6,8.6,23.8,13.3,37,16.7
				c9.1,2.3,26.8,3.6,36.1,2.8V-5z"/>
			<g>
				<path class="st3" d="M1136.2-13.8c-2.6,17.7-2.4,35.7,0.7,53.3c2.7,15.1,6.9,31.4,19.9,41c11.1,8.2,25.7,10.4,39.2,10
					c16.8-0.5,33.3-4.8,49.7-8.4c16.8-3.8,34.2-7.2,51.5-5.6c7.5,0.7,15.5,2.6,21.3,7.8c5.1,4.6,7.9,10.9,9.1,17.6
					c2.9,15.6-2.5,30.9-3.7,46.3c-0.6,8.2,0.1,16.5,3.6,24.1c2.9,6.2,7.4,11.6,12.7,16c11.7,9.7,26.7,15.2,41.5,18
					c16.2,3.1,33,2.8,49-0.9c4.1-0.9,8-2.1,12-3.5c1.4-0.5,0.8-2.6-0.6-2.2c-15.7,5.4-32.5,7.5-49.1,6c-15.5-1.4-31.5-5.8-44.8-14.2
					c-5.9-3.7-11.3-8.3-15.3-14c-4.6-6.5-6.8-14.1-7-22c-0.5-15.9,5.6-31.1,4.8-47c-0.3-6.5-1.6-13.1-4.9-18.8
					c-3.4-6-8.8-10.3-15.3-12.7c-7.3-2.7-15.4-3.2-23.2-3.1c-8.3,0.1-16.5,1.1-24.7,2.6c-16.8,3-33.3,7.8-50.2,10.5
					c-14.3,2.3-29.5,3-43.3-2c-6.5-2.3-12.4-6-17-11.1c-5.3-6-8.3-13.5-10.4-21.1c-4.8-17-6.6-35.1-5.6-52.7
					c0.3-4.4,0.7-8.8,1.3-13.2C1137.6-14.3,1136.4-14.7,1136.2-13.8L1136.2-13.8z"/>
			</g>
			<path class="st3" d="M1289.6,36.2c3.4,0,3.4-5.4,0-5.4C1286.1,30.8,1286.1,36.2,1289.6,36.2z"/>
			<path class="st3" d="M1275.3,55.6c-0.9,0-0.9,1.4,0,1.4C1276.2,57,1276.2,55.6,1275.3,55.6z"/>
			<path class="st3" d="M1305.3,43.5c-3.7,0-3.7,5.7,0,5.7C1308.9,49.2,1309,43.5,1305.3,43.5z"/>
			<path class="st3" d="M1318.1,49.3c1.9,0,1.9-3,0-3C1316.2,46.2,1316.2,49.3,1318.1,49.3z"/>
			<path class="st3" d="M1322.4,67.7c1.8,0,1.8-2.9,0-2.9C1320.6,64.9,1320.6,67.7,1322.4,67.7z"/>
			<path class="st3" d="M1338.1,47c-2.8,0-2.8,4.3,0,4.3C1340.9,51.4,1340.9,47,1338.1,47z"/>
			<path class="st3" d="M1306.7,82c-1.9,0-1.9,3,0,3C1308.6,84.9,1308.6,82,1306.7,82z"/>
			<path class="st3" d="M1285.3,99.8c2.7,0,2.7-4.2,0-4.2C1282.6,95.6,1282.6,99.8,1285.3,99.8z"/>
			<path class="st3" d="M1272.4,93.2c-3.9,0-3.9,6.1,0,6.1C1276.4,99.3,1276.4,93.2,1272.4,93.2z"/>
		</g>
		<g class="st0">
			<g>
				<path class="st3" d="M721.8,747c-64.9-20.9-105.4-82.8-119.8-146.8c-3.7-16.4-5.7-33.2-6.1-50c-0.4-16.7,1.6-33.4,0.8-50.1
					c-0.8-16.2-4.3-33.3-17.1-44.4c-16.3-14.2-40.4-12.3-59.6-6c-19.6,6.4-37.6,16.9-57.7,21.7c-18.2,4.4-37.3,5.1-55.8,2.3
					c-19.1-2.9-37.6-9.6-54-19.8c-17-10.6-31.3-24.7-46.4-37.7c-16.2-13.9-33.4-26.1-54.1-32.3c-20.5-6.2-42.3-7.2-63.6-5
					c-39.5,4.1-77.7,19-111.9,38.8C3.1,460.2-52.1,526.4-103.2,592.9c-6.6,8.6-13.1,17.1-19.6,25.7c-1.3,1.8-3.8-0.6-2.5-2.4
					C-73.8,548.3-21,479.1,50,430.3c32-21.9,67.3-39.4,105-48.9c39.4-9.9,83.6-11.4,120.3,8.4c35.8,19.3,59.5,54.8,97.3,71.1
					c18.9,8.1,39.6,12,60.1,11.4c21.2-0.6,40.6-6.7,59.9-15c18.4-7.9,37.3-16.5,57.8-15.5c17,0.8,32.7,8.5,41.1,23.7
					c7.5,13.6,8.5,29.8,8.4,45c-0.2,17.1-1.7,34-0.5,51.1c4.6,67.5,36.7,140.1,98.9,172.9c7.7,4.1,15.7,7.4,24,10
					C723.9,745,723.3,747.4,721.8,747L721.8,747z"/>
			</g>
			<path class="st2" d="M83.1,444.4c22.9-11.8,48-20.8,73.8-20.5c74.9,0.8,131.2,76.4,205.7,84.3c39.5,4.1,78.1-11.5,117.5-16.2
				c15.8-1.9,32.8-1.8,46.6,6.3c21.4,12.5,28.5,39.8,32,64.4c5.6,39.4,7.1,79.4,4.5,119.1C402.8,622.1,225,642.9,55.5,619.6
				c-20.9-2.9-42.4-6.7-60.4-17.7C-86,552.5,37.4,468,83.1,444.4z"/>
			<path class="st3" d="M152.1,505.8c-1.4,5.9-10.5,3.7-9.1-2.1C144.4,497.9,153.5,500,152.1,505.8z"/>
			<path class="st3" d="M238.1,401.8c-1.4,5.9-10.5,3.7-9.1-2.1C230.4,393.9,239.5,396,238.1,401.8z"/>
			<path class="st3" d="M217.5,479.2c-0.8,3.4-6.1,2.2-5.3-1.2C213,474.6,218.3,475.8,217.5,479.2z"/>
			<path class="st3" d="M218.7,523.9c-1.2,5.3-9.4,3.4-8.2-1.9C211.7,516.7,219.9,518.6,218.7,523.9z"/>
			<path class="st3" d="M249.4,508.1c-0.8,3.6-6.4,2.3-5.6-1.3C244.7,503.2,250.2,504.5,249.4,508.1z"/>
			<path class="st3" d="M378.4,453.1c-0.8,3.6-6.4,2.3-5.6-1.3C373.7,448.2,379.2,449.5,378.4,453.1z"/>
			<path class="st3" d="M264.2,513.7c-0.5,2.3-4.2,1.5-3.6-0.8C261.1,510.5,264.7,511.4,264.2,513.7z"/>
			<path class="st3" d="M280.4,545.3c-1.2,5.1-9.1,3.2-7.9-1.9C273.7,538.4,281.6,540.2,280.4,545.3z"/>
			<path class="st3" d="M292.8,509.7c-1.1,4.8-8.7,3.1-7.5-1.8C286.4,503.1,294,504.9,292.8,509.7z"/>
			<path class="st3" d="M261.8,487.7c-1.1,4.8-8.7,3.1-7.5-1.8C255.4,481.1,263,482.9,261.8,487.7z"/>
			<path class="st3" d="M321.6,536.7c0.4-0.3,0.8-0.4,1.3-0.5c0.5-0.1,0.9-0.1,1.4,0c0.5,0.1,0.9,0.3,1.3,0.6c0.4,0.2,0.7,0.6,1,1
				c0.1,0.3,0.3,0.6,0.4,0.8c0.2,0.6,0.2,1.2,0.1,1.9c-0.1,0.3-0.2,0.6-0.3,0.9c-0.3,0.6-0.7,1-1.3,1.3c-0.8,0.6-1.6,1.1-2.4,1.7
				c-0.4,0.3-0.9,0.4-1.4,0.5c-0.5,0.1-1,0.1-1.5,0c-0.5-0.1-1-0.3-1.3-0.6c-0.4-0.3-0.7-0.6-1-1c-0.1-0.3-0.3-0.6-0.4-0.9
				c-0.2-0.6-0.2-1.3-0.1-2c0.1-0.3,0.2-0.6,0.4-0.9c0.3-0.6,0.8-1,1.3-1.4C319.9,537.7,320.7,537.2,321.6,536.7z"/>
			<path class="st3" d="M317.5,511.2c-1,4.1-7.3,2.6-6.3-1.5C312.1,505.7,318.5,507.2,317.5,511.2z"/>
			<path class="st3" d="M249.5,428.2c-1,4.1-7.3,2.6-6.3-1.5C244.1,422.7,250.5,424.2,249.5,428.2z"/>
			<path class="st3" d="M343.4,483.1c-1,4.1-7.4,2.6-6.4-1.5C338,477.5,344.4,479,343.4,483.1z"/>
			<path class="st3" d="M355.2,509.4c0.6-2.7,4.9-1.7,4.2,1C358.7,513.1,354.5,512.1,355.2,509.4z"/>
			<path class="st3" d="M430.2,447.4c0.6-2.7,4.9-1.7,4.2,1C433.7,451.1,429.5,450.1,430.2,447.4z"/>
			<path class="st3" d="M303.2,465.4c0.6-2.7,4.9-1.7,4.2,1C306.7,469.1,302.5,468.1,303.2,465.4z"/>
			<path class="st3" d="M376,490.7c-1,4.3-7.6,2.7-6.6-1.6C370.3,484.9,377,486.5,376,490.7z"/>
			<path class="st3" d="M399,481.2c-1.4,6.1-11,3.9-9.6-2.2C390.9,472.8,400.4,475,399,481.2z"/>
		</g>
	</g>
</g>
<g id="圖層_2" class="st4">
	<g class="st5">
		<path class="st6" d="M512.5,79.3c0,0-20.3,2.6-23.3,24.1c-3,21.5-14.9,86.7,5.6,90.6s125.2,2.3,138.5-3.7
			c13.3-6,11.4-14.3,11.9-28.8c0.5-14.5,4.7-75.9-32.9-81.4C574.8,74.5,544,73.3,512.5,79.3z"/>
		<g>
			<path class="st7" d="M543.1,187c-12.4,0-23.3-0.3-31.5-0.9c-0.1,0-0.5,0-1.1,0c-2.6,0-9-0.2-13.7-1.6c-3.1-1-4.2-4.6-3.9-23.8
				c0.2-16.6,3.1-36.1,5-49c0.4-2.6,0.7-4.9,1-6.9c1.9-13.4,13.6-15.6,14.9-15.8c0.2,0,0.3,0,0.4-0.1c13.6-2.6,27.2-3.8,41.9-3.8
				c6.7,0,13.5,0.3,20.8,0.8c10.3,0.7,21.5,2,34.2,3.8c11.1,1.6,18.4,10.6,22.2,27.6c3.6,15.7,2.8,33.3,2.5,41.7
				c0,0.8-0.1,1.5-0.1,2.2c-0.1,2-0.1,3.9-0.1,5.7c-0.2,11-0.3,12.1-6.1,14.6C622.6,184.3,580.7,187,543.1,187z"/>
			<path class="st3" d="M556,85.7c6.7,0,13.4,0.3,20.7,0.8c10.3,0.7,21.5,2,34.1,3.8c10.8,1.6,17.9,10.4,21.7,27.1
				c3.5,15.6,2.8,33.1,2.5,41.5c0,0.8-0.1,1.5-0.1,2.2c-0.1,2-0.1,4-0.1,5.7c-0.2,11.1-0.4,11.7-5.6,14c-6.7,2.8-48.6,5.5-86.1,5.5
				c-12.4,0-23.2-0.3-31.5-0.9l-0.1,0l-0.1,0c0,0-0.4,0-1.1,0c-2.5,0-8.9-0.2-13.5-1.6c-2.7-0.9-3.7-4.5-3.5-23.2
				c0.2-16.5,3.1-36,5-48.9c0.4-2.6,0.7-4.9,1-6.9c1.8-12.8,12.9-15,14.3-15.2c0.2,0,0.3,0,0.5-0.1l0.1,0
				C527.8,87,541.5,85.7,556,85.7 M556,84.4c-14.8,0-28.4,1.3-41.9,3.8c-0.2,0-0.3,0.1-0.5,0.1c-1.6,0.3-13.6,2.6-15.5,16.4
				c-0.3,2-0.6,4.3-1,6.9c-1.9,12.9-4.9,32.4-5,49.1c-0.2,19.5,0.8,23.3,4.4,24.5c4.8,1.5,11.3,1.7,13.9,1.7c0.7,0,1.1,0,1.1,0
				c8.8,0.6,19.8,0.9,31.6,0.9c36.2,0,79.5-2.6,86.6-5.6c6.1-2.7,6.3-4,6.5-15.2c0-1.8,0.1-3.7,0.1-5.6c0-0.6,0.1-1.4,0.1-2.2
				c0.3-8.5,1.1-26.1-2.5-41.9C630,99.9,622.5,90.7,611.1,89c-12.7-1.9-23.9-3.1-34.2-3.8C569.6,84.6,562.7,84.4,556,84.4L556,84.4z
				"/>
		</g>
		<path class="st8" d="M479.1,215.5c-0.7,0.7,0.1,1.6,7.7,1.8c13.6,0.2,158.5,2.5,158.5,2.5s7.2,0.3,3.6-3.7L479.1,215.5z"/>
		<g>
			<path class="st9" d="M498.5,182.9c-3.5-1.1-4.5-4.8-4.3-23.4c0.2-15.9,3-34.6,4.8-46.9c0.4-2.5,0.7-4.7,1-6.5
				c1.9-13.2,13.4-15.4,15-15.6c0.2,0,0.3,0,0.5-0.1c19-3.5,38.4-4.4,60.9-2.8c10,0.7,20.9,1.9,33.2,3.7
				c11.1,1.6,18.3,10.4,22.1,26.9c3.5,15.1,2.8,32,2.5,40c0,0.8-0.1,1.5-0.1,2.1c-0.1,1.9-0.1,3.7-0.1,5.4
				c-0.1,10.7-0.4,12-6.3,14.6c-9.2,3.8-80.1,6.8-114.9,4.3C513,184.5,504.3,184.7,498.5,182.9z"/>
		</g>
		<path class="st10" d="M513.5,203c0,0-10.9-0.1-14.9,1.5c-4,1.6-18.3,7.8-18.3,7.8s-7.9,2.6,5.7,2.9c13.6,0.2,158.5,2.5,158.5,2.5
			s7.2,0.3,3.6-3.7c-3.6-3.9-9-8-9-8s-2.2-2.1-15.8-2.4C609.8,203.3,513.5,203,513.5,203z"/>
		<g>
			<polygon class="st3" points="500.5,206.3 514.4,206.2 528.3,206.2 556.2,206.4 584,206.9 597.9,207.2 611.8,207.6 597.9,207.8 
				584,207.7 556.2,207.5 528.3,207.1 514.4,206.8 			"/>
		</g>
		<g>
			<polygon class="st3" points="490.5,211.5 508.2,211.4 525.9,211.3 561.2,211.5 596.5,211.9 614.2,212.2 631.8,212.6 614.2,212.7 
				596.5,212.7 561.2,212.6 525.9,212.2 508.2,211.9 			"/>
		</g>
		<g>
			<path class="st3" d="M529.9,204.2c-4,1.9-8.2,3.6-12.4,5.1c-4.2,1.5-8.4,2.9-12.8,4c4-1.9,8.2-3.6,12.4-5.1
				C521.3,206.8,525.6,205.3,529.9,204.2z"/>
		</g>
		<g>
			<path class="st3" d="M560.8,204c-3.8,2.1-7.6,3.9-11.6,5.6c-3.9,1.7-7.9,3.3-12,4.6c3.8-2.1,7.6-3.9,11.6-5.6
				C552.7,206.9,556.7,205.3,560.8,204z"/>
		</g>
		<g>
			<path class="st3" d="M586.1,204.7c-2.6,2-5.4,3.7-8.3,5.3c-2.9,1.6-5.8,3.1-8.8,4.4c2.6-2,5.4-3.7,8.3-5.3
				C580.1,207.5,583,206,586.1,204.7z"/>
		</g>
		<g>
			<path class="st3" d="M610.1,204.7c-2.6,2-5.4,3.7-8.3,5.3c-2.9,1.6-5.8,3.1-8.8,4.4c2.6-2,5.4-3.7,8.3-5.3
				C604.1,207.5,607,206,610.1,204.7z"/>
		</g>
		<path class="st11" d="M495.3,179.3c31-1.5,82.6-8.4,99.8-22.7c20.7-17.1,15.3-64,15.3-64l-0.7-1.5c11.1,1.6,18.3,10.4,22.1,26.9
			c3.5,15.1,2.8,32,2.5,40c0,0.8-0.1,1.5-0.1,2.1c-0.1,1.9-0.1,3.7-0.1,5.4c-0.1,10.7-0.4,12-6.3,14.6c-9.2,3.8-80.1,6.8-114.9,4.3
			c0,0-8.7,0.2-14.6-1.6C497,182.4,496,181.5,495.3,179.3L495.3,179.3z"/>
		<circle class="st12" cx="565.3" cy="80.5" r="2.2"/>
	</g>
	<g class="st5">
		<path class="st13" d="M146.1,233.9c1.5-5.8,3.1-11.6,4.9-17.3c2.2-7.1,4.3-14.2,6.6-21.2c4.4-14.1,9-28.3,13.7-42.3
			c9.3-28.1,19.2-56.1,29.5-83.9c1.8-4.9,3.6-9.7,5.8-14.4c0.3,1.7,1.9,2.9,3.6,3c1.7,0.1,3.3-0.7,4.5-2c0.3,2.2,1.8,4.2,3.9,5.1
			c2.1,0.8,4.6,0.5,6.3-1c-0.2,1.5,0.3,3,1.4,4.1c1,1.1,2.6,1.7,4,1.6c-2.6,6.7-5.6,13.3-8.3,20c-2.7,6.8-5.3,13.7-7.8,20.6
			c-5.1,13.8-9.8,27.8-14.5,41.8c-1.9,5.8-3.8,11.6-5.7,17.4c-1,2.9-1.9,5.9-2.9,8.8c-0.5,1.5-1,2.9-1.4,4.4
			c-0.4,1.3-1.2,2.8-1.4,4.2c-0.6,4.6-3.1,9.6-4.5,14c-1.5,4.6-2.8,9.3-4.5,13.8c-3.4,8.9-6.3,18.1-9.4,27.1c-0.2,0.6-0.6,3-1.1,3.3
			c-0.7,0.5-1.8-0.2-2.7-0.5c-2.3-0.8-4.5-1.5-6.8-2.3C154.8,236.9,150.4,235.4,146.1,233.9z"/>
		<path class="st14" d="M230.1,65.6c-0.6,1.5-1.2,3-1.8,4.4c-6.3-2.5-13.7-4.3-19-0.4c-6.5,4.8-9.6,18.6-12.3,26
			c-12.4,33.8-24.3,67.9-37,101.6c-4.4,11.7-8.9,23.4-13.5,35c1.4-5.3,2.8-10.4,4.4-15.6c2.2-7.1,4.3-14.2,6.6-21.2
			c4.4-14.1,9-28.3,13.7-42.3c9.3-28.1,19.2-56.1,29.5-83.9c1.8-4.9,3.6-9.7,5.8-14.4c0.3,1.7,1.9,2.9,3.6,3c1.7,0.1,3.3-0.7,4.5-2
			c0.3,2.2,1.8,4.2,3.9,5.1c2.1,0.8,4.6,0.5,6.3-1c-0.2,1.5,0.3,3,1.4,4.1C227.1,65.1,228.6,65.7,230.1,65.6z"/>
		<g>
			<path class="st15" d="M209.1,52.5c-1,0.8-2,1.6-3,2.4c0.5,1.6,2.1,2.8,3.8,3c1.7,0.1,3.4-0.8,4.2-2.3c0.4,2.2,1.8,4.1,3.8,5
				c2,0.9,4.4,0.8,6.3-0.3c0.3,1.3,0.8,2.5,1.6,3.6c0.8,1,2,1.8,3.3,1.8c0.2,0,0.4,0,0.5-0.2c0.1-0.1,0.1-0.2,0.1-0.3
				c0-7.9-0.8-15.9-2.5-23.7c-0.1-0.3-0.2-0.7-0.5-0.9c-0.4-0.3-1,0-1.4,0.3c-6.4,4.5-12.7,9.1-19,13.7c2.2-1.6,4.2-2.9,6.4-4.5"/>
			<path class="st3" d="M221.3,46.9c1.8-1.6,3.8-3,6-4.2c0.2,1.1,0.4,2.2,0.7,3.3c0.3,1.4,0.5,2.7,0.9,4.1c-1.4,0.6-2.9,0.4-4.3-0.3
				C224.1,49.8,220.7,47.4,221.3,46.9z"/>
			<path class="st3" d="M159.1,260.8c-2.3,1.5-5.1,1.9-7.8,1.4c-2.6-0.6-5-2-6.9-4c-0.8-0.9-1.5-1.8-1.9-2.9c-0.5-1.4-0.5-3-0.4-4.5
				c0.2-2.8,0.8-5.6,1.4-8.3c-0.3,1.5,19.5,7.9,21.8,8.3C164.2,254.6,162.6,258.5,159.1,260.8z"/>
			<path class="st16" d="M144.2,240.6c0.9-2.2,1.6-4.5,2.2-6.8c7.7,2.1,15.2,4.5,22.7,7.2c0.4,0.1-3,8.4-3.3,9.4
				c0,0.1-0.1,0.2-0.1,0.2c-0.1,0-0.1,0-0.2,0c-3.7-1.4-7.3-2.9-10.9-4.5C153.6,245.6,144,241.1,144.2,240.6z"/>
			<g>
				<g>
					<path class="st3" d="M146.2,233.4c3.9,1.2,7.7,2.5,11.5,3.9c3.8,1.4,7.6,2.9,11.4,4.3c-0.2,0.1-0.5,0.3-0.7,0.4
						c0.8-3,1.9-5.9,3-8.8c0.2-0.4,0.8-0.2,0.7,0.3c-1,2.9-1.8,5.8-2.6,8.8c-0.1,0.3-0.5,0.4-0.7,0.3c-3.7-1.6-7.6-2.9-11.3-4.4
						c-3.8-1.4-7.6-2.8-11.4-4.2C145.5,233.8,145.8,233.3,146.2,233.4L146.2,233.4z"/>
				</g>
				<g>
					<g>
						<path class="st3" d="M145.7,233.6c3.3-11.8,6.8-23.6,10.4-35.3c3.6-11.7,7.3-23.4,11.2-35c3.9-11.6,7.8-23.2,11.9-34.8
							c4.1-11.6,8.2-23.1,12.6-34.6c4.3-11.5,8.7-22.9,13.2-34.3c0.6-1.4,1.1-2.8,1.7-4.2c0.3-0.6,1.2-0.2,1,0.4
							c-4.5,11.4-9,22.8-13.3,34.3c-4.3,11.5-8.5,23-12.6,34.5c-4.1,11.5-8.1,23.1-12,34.8c-3.9,11.6-7.7,23.3-11.4,35
							c-3.7,11.7-7.3,23.4-10.8,35.1c-0.4,1.4-0.9,2.9-1.3,4.3C146.2,234.3,145.6,234,145.7,233.6L145.7,233.6z"/>
					</g>
					<g>
						<path class="st3" d="M169.1,240.7c3.1-11.4,6.8-22.6,10.4-33.8c3.7-11.6,7.5-23.1,11.4-34.6c3.9-11.6,7.9-23.2,12-34.7
							c4.1-11.5,8.2-22.9,12.5-34.3c4.1-11.2,8.4-22.3,12.7-33.4c0.5-1.4,1.1-2.8,1.6-4.1c0.3-0.7,1.4-0.3,1.1,0.5
							c-4.3,11.1-8.5,22.2-12.6,33.3c-4.2,11.3-8.4,22.7-12.4,34.1c-4.1,11.5-8.2,23.1-12.1,34.7c-4,11.5-7.8,23-11.7,34.6
							c-3.7,11.3-7.4,22.6-11,34c-0.4,1.4-0.9,2.7-1.4,4.1C169.5,241.1,169.1,241,169.1,240.7L169.1,240.7z"/>
					</g>
					<g>
						<path class="st3" d="M207.5,55.6c0.4,1.3,1.8,2,3.1,1.9c1.5-0.1,2.7-1.2,3.5-2.3c0.3-0.5,0.9-0.1,0.9,0.4
							c-0.1,2,1.4,3.9,3.2,4.6c2.1,0.9,4.6,0.3,6.4-1c0.3-0.2,0.9,0,0.8,0.5c-0.7,3.1,1.7,5.9,4.9,5.7c0.6,0,0.7,0.9,0.1,0.9
							c-3.8,0.4-6.9-3.1-6-6.8c0.3,0.2,0.5,0.3,0.8,0.5c-2.2,1.5-5.1,2.2-7.6,1.1c-2.2-1-3.8-3.2-3.7-5.7c0.3,0.1,0.6,0.3,0.9,0.4
							c-1.1,1.5-2.7,2.7-4.5,2.7c-1.6,0-3.1-1.1-3.5-2.7C206.8,55.4,207.4,55.2,207.5,55.6L207.5,55.6z"/>
					</g>
					<g>
						<path class="st3" d="M230.1,65.2c-0.8-3.8-1.3-7.6-1.9-11.4c-0.6-3.8-1.2-7.6-1.7-11.4c0.3,0.1,0.6,0.2,0.9,0.4
							c-6.2,4.8-12.7,9.2-19.5,13.1c-0.6,0.3-1.2-0.5-0.6-0.8c6.7-4,13.3-8.4,19.5-13.2c0.3-0.3,0.8,0,0.9,0.4
							c0.6,3.8,1.1,7.6,1.7,11.4c0.5,3.8,1.2,7.6,1.5,11.4C230.8,65.5,230.2,65.6,230.1,65.2L230.1,65.2z"/>
					</g>
					<g>
						<path class="st3" d="M220.2,47.3c1.6,2.2,4.5,3.4,7.2,2.5c0.6-0.2,0.9,0.7,0.4,0.8c-2.9,1-6.7-0.2-8.1-3
							C219.5,47.3,220,47,220.2,47.3L220.2,47.3z"/>
					</g>
					<g>
						<path class="st3" d="M147.6,229.8c-1.4,4.1-2.6,8.2-3.9,12.3c-0.1-0.2-0.2-0.5-0.3-0.7c4,2.2,8.2,4.1,12.5,5.8
							c2.1,0.9,4.3,1.6,6.5,2.4c0.5,0.2,1.1,0.4,1.6,0.5c0.2,0.1,0.5,0.2,0.7,0.2c0.4,0.1,0.4-0.2,0.5-0.5c0.4-1.1,0.8-2.3,1.2-3.4
							c0.9-2.6,1.9-5.1,2.8-7.7c0.2-0.6,1.2-0.2,0.9,0.4c-0.9,2.4-1.8,4.8-2.7,7.2c-0.5,1.2-0.9,2.4-1.4,3.7
							c-0.1,0.4-0.2,0.9-0.6,1.1c-0.4,0.3-0.9,0.2-1.3,0.1c-4.7-1.3-9.4-3.2-13.8-5.2c-2.5-1.2-5-2.4-7.4-3.7
							c-0.3-0.2-0.4-0.4-0.3-0.7c1.4-4.1,2.8-8.1,4.4-12C147.3,229.4,147.7,229.5,147.6,229.8L147.6,229.8z"/>
					</g>
					<g>
						<path class="st3" d="M165.9,249.9c-1,3.4-2,6.9-4.4,9.6c-2.1,2.4-5,3.9-8.3,3.8c-3.3-0.2-6.6-1.8-9.3-3.7
							c-1.2-0.9-2.3-2-3.1-3.3c-0.8-1.5-1.1-3.1-0.8-4.7c0.3-2.1,0.9-4.2,1.5-6.3c0.6-2.1,1.2-4.2,1.9-6.3c0.2-0.7,1.2-0.2,1,0.4
							c-1.1,3.4-2.2,6.9-3,10.4c-0.4,1.6-0.6,3.3-0.1,4.9c0.5,1.3,1.4,2.4,2.4,3.4c2.3,2,5.3,3.6,8.3,4.1c3.1,0.5,6-0.5,8.2-2.7
							c2.6-2.6,4-6.2,5.2-9.6C165.5,249.2,166,249.5,165.9,249.9L165.9,249.9z"/>
					</g>
					<g>
						<path class="st3" d="M225,60.4c-0.6,1.6-1.1,3.2-1.7,4.8c-1.5,4.3-3,8.7-4.5,13c-2.2,6.5-4.5,12.9-6.7,19.4
							c-2.7,7.8-5.5,15.7-8.2,23.5c-3,8.6-6,17.2-9,25.8c-3,8.7-6,17.3-9.1,26c-2.8,8.1-5.6,16.2-8.5,24.2
							c-2.4,6.8-4.8,13.7-7.2,20.5c-1.7,4.9-3.4,9.8-5.1,14.7c-0.8,2.3-1.6,4.7-2.4,7c0,0.1-0.1,0.2-0.1,0.3c-0.2,0.7-1.2,0.2-1-0.4
							c0,0,0-0.1,0-0.1c0-0.1,0.1-0.2,0,0c0-0.1,0.1-0.2,0.1-0.3c0.1-0.3,0.2-0.6,0.3-0.9c0.4-1.2,0.8-2.4,1.2-3.6
							c1.5-4.3,3-8.7,4.5-13c2.3-6.4,4.5-12.9,6.8-19.3c2.7-7.8,5.5-15.7,8.2-23.5c3-8.6,6-17.2,9-25.7c3-8.7,6.1-17.3,9.1-26
							c2.8-8.1,5.7-16.1,8.5-24.2c2.4-6.8,4.8-13.6,7.2-20.5c1.7-4.9,3.5-9.8,5.2-14.7c0.8-2.3,1.6-4.7,2.5-7c0-0.1,0.1-0.2,0.1-0.3
							C224.6,59.8,225.2,60,225,60.4L225,60.4z"/>
					</g>
					<g>
						<path class="st3" d="M214.5,56.3c-0.5,1.6-1.1,3.2-1.6,4.8c-1.5,4.4-2.9,8.7-4.4,13.1c-2.2,6.5-4.4,13-6.5,19.4
							c-2.6,7.9-5.3,15.8-7.9,23.6c-2.9,8.6-5.8,17.2-8.7,25.9c-2.9,8.7-5.9,17.4-8.8,26.1c-2.7,8.1-5.5,16.2-8.2,24.3
							c-2.3,6.9-4.7,13.8-7,20.6c-1.7,4.9-3.3,9.9-5,14.8c-0.8,2.3-1.5,4.7-2.4,7c0,0.1-0.1,0.2-0.1,0.3c-0.2,0.7-1.2,0.2-1-0.4
							c0,0,0-0.1,0-0.1c0-0.1,0.1-0.2,0,0c0-0.1,0.1-0.2,0.1-0.3c0.1-0.3,0.2-0.6,0.3-0.9c0.4-1.2,0.8-2.4,1.2-3.6
							c1.5-4.4,3-8.7,4.4-13.1c2.2-6.5,4.4-12.9,6.6-19.4c2.7-7.9,5.3-15.7,8-23.6c2.9-8.6,5.8-17.2,8.8-25.8
							c3-8.7,5.9-17.4,8.9-26.1c2.8-8.1,5.5-16.2,8.3-24.3c2.3-6.9,4.7-13.7,7-20.6c1.7-4.9,3.4-9.8,5-14.8c0.8-2.3,1.6-4.7,2.4-7
							c0-0.1,0.1-0.2,0.1-0.3C214.1,55.7,214.7,56,214.5,56.3L214.5,56.3z"/>
					</g>
				</g>
			</g>
		</g>
	</g>
	<g class="st5">
		<path class="st18" d="M368.5,428.3l-0.1-0.1c-11.5-47.7-9.3-95.9-5.7-127l0,0.1c1.2-0.3,2.3-0.6,3.5-0.9l0,0
			c2.5-21.1,5.7-34.4,5.7-34.4s2.2-13.3-13.9-16.1l0,0c-0.6,7.5-0.3,13.5-0.3,13.5c-41.9,13.7-59.5-7.4-59.5-7.4s-0.6-5.1-1.3-13.1
			l-0.4-0.2c-11.1-0.2-15,10.5-15,10.5s-1.7,8.9-4.1,23.2l0,0c0.8,1.3,1.6,2.8,2.6,4.1l0,0c-6.2,37.8-16.4,112.2-9.8,159.7
			C270.2,439.9,324.1,463,368.5,428.3z"/>
		<path class="st19" d="M368,427.5c-11.5-47.7-9.3-95.9-5.7-127l3.6-0.9c2.5-21.1,5.7-34.4,5.7-34.4s2.2-13.3-13.9-16.1l6,6.1
			c0,0,3.6,1.8,1.8,9.8s-1.8,25.8-6.2,29.3s-38.2,10.7-58.7,0c-20.4-10.7-3.6,7.1,0,9.8s28.4,13.3,51.6,7.1c0,0-9.8,62.2,0,84.5
			c9.8,22.2,11.6,21.3,11.6,21.3L368,427.5z"/>
		<path class="st17" d="M370.3,141.2c1.5-2.8,2.8-5.1,3.8-6.7c3.9-6.4,19.4-25.6,0-26.9c-3.5-0.2-6.8,1.3-9.7,4l-0.8-0.6
			c-6.1-4-11.5-2.6-16.1,1.6l0,0c-8.9-7.3-16.2-3.3-21.8,4.7l-0.2-0.1c0,0-23.4-18.1-32.6,33.9c-3.9,21.7,5.1,102.6,5.1,102.6
			s17.6,19.1,59.5,7.4c0,0-1.3-25.6,6.5-37.1c7.7-11.5,27.1-30.7,23.2-65.2C387,158.9,384.7,138.9,370.3,141.2"/>
		<path class="st20" d="M313,152.1c0,0,15.1-52.5,32-36.4l2.7-2.7c-24.5-20.7-36.8,45.1-36.8,45.1L313,152.1z"/>
		<path class="st20" d="M329.8,152.1c0,0,16-50.7,32-36.4l1.9-4.1c-23.2-15.5-36.2,47.8-36.2,47.8L329.8,152.1z"/>
		<path class="st20" d="M347.6,147.6c0,0,11.3-35,24-37.3c5-0.9,11.6,0.9,12.4,7.1c0,0,1.2-9-10-9.7c-19.4-1.3-29.7,51.6-29.7,51.6
			L347.6,147.6z"/>
		<path class="st20" d="M367.2,175.2c-1.8-21.3,2.7-29.3,6.8-33.2l0,0c-1.1-0.1-2.3-0.1-3.6,0.1l0,0c-4.6,9.1-9.9,23.8-4,38.5
			L367.2,175.2z"/>
		<path class="st20" d="M325.6,117.5l-0.2-0.1c0,0-23.4-18.3-32.6,34.2c-3.9,22,5.1,103.6,5.1,103.6s1.8,1.8,3.6,2.7
			c-1.6-15.1-9.6-82.8-6.2-102.2c7.3-41.4,22.7-38.4,29.2-35.4L325.6,117.5z"/>
		<g>
			<path class="st3" d="M313.6,251.5c1.3,1,2.9,1.6,4.5,1.6c0.3,0,0.7-0.3,0.7-0.7c0-0.3-0.3-0.7-0.7-0.7c-1.4,0.1-2.8-0.3-4-1
				c-0.2-0.1-0.4-0.1-0.6,0.1C313.5,251,313.5,251.3,313.6,251.5L313.6,251.5z"/>
		</g>
		<g>
			<path class="st3" d="M304.6,239.8c0.1,4.8,0.4,9.6,0.9,14.4c0.1,1.2,1.9,1,1.7-0.2c-0.7-4.7-1.2-9.4-1.5-14.1
				C305.7,239.1,304.6,239.1,304.6,239.8L304.6,239.8z"/>
		</g>
		<g>
			<path class="st3" d="M383,175.5c-1.1,0.2-2.2,0.3-3.3,0.5c-1.1,0.2-2.2,0.3-3.3,0.6c-0.3,0.1-0.5,0.3-0.4,0.6
				c0.1,0.3,0.3,0.4,0.6,0.4c1.1-0.1,2.2-0.4,3.2-0.7c1.1-0.2,2.1-0.5,3.2-0.8C383.6,176.1,383.4,175.5,383,175.5L383,175.5z"/>
		</g>
		<g>
			<path class="st3" d="M381.6,172.8c-1.1,0-2.1-0.1-3.2-0.1c-0.3,0-0.5,0.2-0.5,0.5c0,0.3,0.2,0.6,0.5,0.5c1.1,0,2.1-0.1,3.2-0.1
				c0.2,0,0.4-0.2,0.4-0.4C382,173.1,381.8,172.9,381.6,172.8L381.6,172.8z"/>
		</g>
		<g>
			<path class="st3" d="M361.4,149.1c-1.2-0.2-2.3-0.5-3.5-0.9c-0.5-0.2-1.1-0.4-1.6-0.6c-0.6-0.2-1.1-0.5-1.7-0.7
				c-0.3-0.1-0.6,0-0.7,0.3c-0.1,0.3,0.1,0.6,0.3,0.7c0.5,0.3,1.1,0.4,1.7,0.6c0.6,0.2,1.2,0.3,1.8,0.5c1.2,0.3,2.4,0.5,3.6,0.6
				C361.8,149.8,361.8,149.2,361.4,149.1L361.4,149.1z"/>
		</g>
		<g>
			<path class="st3" d="M359.3,143c-0.6-0.2-1.1-0.4-1.7-0.6c-0.2-0.1-0.5,0-0.6,0.3c-0.1,0.2,0,0.5,0.3,0.6
				c0.6,0.2,1.1,0.4,1.7,0.6c0.2,0.1,0.4,0,0.5-0.2C359.6,143.3,359.5,143.1,359.3,143L359.3,143z"/>
		</g>
		<g>
			<path class="st3" d="M322.9,144.4c-0.9-0.3-1.7-0.7-2.6-1c-0.3-0.1-0.8,0.1-0.9,0.4c-0.1,0.3,0,0.8,0.4,0.9
				c0.9,0.3,1.8,0.6,2.6,0.9c0.3,0.1,0.7,0,0.8-0.4C323.4,144.8,323.2,144.5,322.9,144.4L322.9,144.4z"/>
		</g>
		<g>
			<path class="st3" d="M303.3,153.6c-0.1,0-0.2,0-0.3,0c-0.1,0-0.1,0-0.2,0c0,0,0,0,0,0c0,0-0.1,0-0.1,0c-0.2-0.1-0.5-0.1-0.7-0.2
				c0,0-0.1,0,0,0c0.1,0,0,0,0,0c-0.1,0-0.1-0.1-0.2-0.1c-0.1-0.1-0.2-0.1-0.3-0.2c0,0-0.1-0.1-0.1-0.1c0,0-0.1,0-0.1-0.1
				c-0.1,0,0,0,0,0c0,0-0.1-0.1-0.1-0.1c0,0-0.1-0.1-0.1-0.1c-0.2-0.2-0.6-0.3-0.8,0c-0.2,0.2-0.3,0.6,0,0.8c0.8,0.7,1.9,1.2,3,1.1
				c0.2,0,0.5-0.2,0.5-0.4C303.7,153.8,303.5,153.6,303.3,153.6L303.3,153.6z"/>
		</g>
		<path class="st21" d="M325.4,117.4c0,0-23.4-18.3-32.6,34.2c-3.9,22,5.1,103.6,5.1,103.6s17.6,21.1,59.5,7.4
			c0,0-1.3-25.8,6.5-37.4s27.1-31,23.2-65.9c0,0-2.4-20.1-16.7-17.8"/>
		<path class="st21" d="M310.8,158.1c0,0,12.3-65.8,36.8-45.1"/>
		<path class="st21" d="M327.6,159.4c0,0,12.9-63.3,36.2-47.8"/>
		<path class="st21" d="M344.4,159.4c0,0,10.3-52.9,29.7-51.6c19.4,1.3,3.9,20.7,0,27.1c-3.9,6.5-15.5,25.8-7.7,45.2"/>
		<path class="st21" d="M373.4,126.3c3.5-3.6,5.5-7.9,4-9.8c-1.5-1.8-3.6-3.6-5.8-3.7c-2.1,0-4,1.9-6.1,5.3
			c-0.7,1.2-2.7,4.6-1.8,5.5C366,126,371.1,128.7,373.4,126.3z"/>
		<path class="st21" d="M276.9,275.5c2.3-14.3,4.1-23.2,4.1-23.2s4.3-10,15.4-9.8"/>
		<path class="st21" d="M269.7,439.3c-6.6-47.5,3.6-121.9,9.8-159.7"/>
		<path class="st21" d="M365.9,299.7c2.5-21.1,5.7-34.4,5.7-34.4s2.2-13.3-13.9-16.1"/>
		<path class="st21" d="M368,427.5c-11.5-47.7-9.3-95.9-5.7-127"/>
		<path class="st21" d="M374.5,147.7c0,0,4.9-0.9,7.3,7.5c1.2,4.3-0.2,5.4-3.7,6.4c-3.7,1.1-6.2,1.9-7.3,0
			C369.6,159.5,368.4,147.7,374.5,147.7z"/>
		<path class="st21" d="M361.2,115.3c0,0-5.2-3.8-7.8-1.2s-6.5,9-5.2,10.3c1.3,1.3,6.5,1.8,6.5,1.8"/>
		<path class="st21" d="M344.7,116.4c0,0-3.5-5.4-8.6-2.8c-5.2,2.6-7.1,11-5.8,12.3c1.3,1.3,7.5,2.2,7.5,2.2"/>
		<path class="st21" d="M314.7,119.3c0,0-3.9-1.3-6.5,2.6c-2.6,3.9-5.2,9-3.9,10.3c1.3,1.3,6.5,1.3,7.7,1.3
			C313.4,133.5,319.9,120.6,314.7,119.3z"/>
		<path class="st21" d="M295.2,294.3c0,0,16.2,23.3,80.6,2.3"/>
		<path class="st21" d="M272.9,267.7c0,0,5.3,12.4,11.6,17.8"/>
	</g>
</g>
</svg>
