<?xml version="1.0" encoding="utf-8"?>
<!-- Generator: Adobe Illustrator 22.1.0, SVG Export Plug-In . SVG Version: 6.00 Build 0)  -->
<svg version="1.1" id="圖層_1" xmlns="http://www.w3.org/2000/svg" xmlns:xlink="http://www.w3.org/1999/xlink" x="0px" y="0px"
	 viewBox="0 0 524.9 195.3" style="enable-background:new 0 0 524.9 195.3;" xml:space="preserve">
<style type="text/css">
	.st0{fill:#CBD4AD;}
	.st1{fill:#414833;}
	.st2{fill:none;}
</style>
<g>
	<path class="st0" d="M488,195.3c-0.8-9-1.8-18-3.1-27c-3.1-22-9.4-46.3-28.6-57.5c-12.3-7.2-27.5-7.3-41.7-5.6
		c-35.2,4.2-69.7,18.2-105,14.5c-66.6-7-116.9-74.6-183.9-75.3c-23.1-0.2-45.5,7.8-66,18.4C45,70.3,21,85.1,0,102.9v92.3H488z"/>
	<path class="st1" d="M121.4,117.6c-1.2,5.2-9.4,3.3-8.1-1.9C114.5,110.4,122.7,112.3,121.4,117.6z"/>
	<path class="st1" d="M198.3,24.6c-1.2,5.2-9.4,3.3-8.1-1.9C191.4,17.5,199.5,19.4,198.3,24.6z"/>
	<path class="st1" d="M179.9,93.8c-0.7,3-5.4,1.9-4.7-1.1C175.9,89.6,180.6,90.7,179.9,93.8z"/>
	<path class="st1" d="M180.9,133.7c-1.1,4.7-8.4,3-7.3-1.7C174.7,127.3,182.1,129,180.9,133.7z"/>
	<path class="st1" d="M208.4,119.6c-0.8,3.2-5.7,2-5-1.2C204.2,115.2,209.2,116.3,208.4,119.6z"/>
	<path class="st1" d="M323.7,70.4c-0.8,3.2-5.7,2-5-1.2C319.5,66,324.4,67.2,323.7,70.4z"/>
	<path class="st1" d="M221.6,124.6c-0.5,2.1-3.7,1.3-3.2-0.8C218.9,121.7,222.1,122.5,221.6,124.6z"/>
	<path class="st1" d="M236.1,152.8c-1.1,4.5-8.1,2.9-7.1-1.7C230.1,146.6,237.2,148.3,236.1,152.8z"/>
	<path class="st1" d="M247.2,121c-1,4.3-7.7,2.8-6.7-1.6C241.5,115.1,248.2,116.7,247.2,121z"/>
	<path class="st1" d="M219.5,101.4c-1,4.3-7.7,2.8-6.7-1.6C213.8,95.4,220.5,97,219.5,101.4z"/>
	<path class="st1" d="M272.9,145.1c0.4-0.2,0.7-0.4,1.2-0.4c0.4-0.1,0.8-0.1,1.3,0c0.4,0.1,0.8,0.3,1.1,0.6c0.4,0.2,0.6,0.5,0.9,0.9
		c0.1,0.2,0.2,0.5,0.3,0.7c0.2,0.6,0.2,1.1,0.1,1.7c-0.1,0.3-0.2,0.5-0.3,0.8c-0.3,0.5-0.6,0.9-1.1,1.2c-0.7,0.5-1.4,1-2.2,1.5
		c-0.4,0.2-0.8,0.4-1.2,0.4c-0.4,0.1-0.9,0.1-1.3,0c-0.5-0.1-0.8-0.3-1.2-0.6c-0.4-0.2-0.7-0.5-0.9-0.9c-0.1-0.3-0.2-0.5-0.4-0.8
		c-0.2-0.6-0.2-1.2-0.1-1.8c0.1-0.3,0.2-0.6,0.3-0.8c0.3-0.5,0.7-0.9,1.2-1.2C271.4,146,272.2,145.6,272.9,145.1z"/>
	<path class="st1" d="M269.3,122.4c-0.9,3.6-6.5,2.3-5.6-1.3C264.5,117.4,270.1,118.7,269.3,122.4z"/>
	<path class="st1" d="M208.5,48.2c-0.9,3.6-6.5,2.3-5.6-1.3C203.7,43.2,209.4,44.5,208.5,48.2z"/>
	<path class="st1" d="M292.4,97.2c-0.9,3.7-6.6,2.3-5.7-1.3C287.6,92.2,293.3,93.5,292.4,97.2z"/>
	<path class="st1" d="M302.9,120.7c0.6-2.4,4.3-1.5,3.8,0.9C306.1,124,302.4,123.1,302.9,120.7z"/>
	<path class="st1" d="M370,65.3c0.6-2.4,4.3-1.5,3.8,0.9C373.2,68.6,369.4,67.7,370,65.3z"/>
	<path class="st1" d="M256.5,81.4c0.6-2.4,4.3-1.5,3.8,0.9C259.7,84.7,255.9,83.8,256.5,81.4z"/>
	<path class="st1" d="M321.5,104c-0.9,3.8-6.8,2.4-5.9-1.4C316.5,98.8,322.4,100.2,321.5,104z"/>
	<path class="st1" d="M342.1,95.5c-1.3,5.5-9.8,3.5-8.5-2C334.9,88,343.4,90,342.1,95.5z"/>
	<path class="st2" d="M518.8,112.3c-0.7-14.4-3.9-29.8-15.3-39.7c-14.6-12.7-36.1-11-53.3-5.4c-17.5,5.7-33.6,15.1-51.6,19.4
		c-16.3,4-33.3,4.6-49.9,2.1c-17-2.6-33.6-8.6-48.3-17.7c-15.2-9.5-28-22.1-41.5-33.7C244.7,24.8,229.3,14,210.8,8.5
		C192.5,2.9,173,2,154,4C118.7,7.7,84.5,21,54,38.7C34.7,49.9,16.8,62.9,0,77.2v118.1h522.2c-2.4-12.6-3.8-25.4-4.1-38.2
		C517.8,142.2,519.5,127.2,518.8,112.3z"/>
	<path class="st1" d="M54,38.7C84.5,21,118.7,7.7,154,4c19-2,38.5-1.1,56.8,4.4c18.4,5.6,33.9,16.4,48.3,28.8
		c13.5,11.6,26.3,24.2,41.5,33.7c14.6,9.1,31.2,15.1,48.3,17.7c16.6,2.5,33.6,1.9,49.9-2.1c18-4.4,34.1-13.7,51.6-19.4
		c17.2-5.6,38.7-7.4,53.3,5.4c11.4,9.9,14.6,25.3,15.3,39.7c0.7,14.9-1.1,29.8-0.7,44.8c0.3,12.8,1.7,25.6,4.1,38.2h2.6
		c-1.8-9.3-3-18.6-3.6-27.8c-1-15.3,0.3-30.4,0.4-45.7c0.1-13.6-0.7-28.1-7.5-40.2c-7.5-13.6-21.6-20.5-36.8-21.2
		c-18.3-0.8-35.2,6.8-51.7,13.9c-17.3,7.4-34.6,12.9-53.5,13.4c-18.4,0.5-36.8-2.9-53.7-10.2c-33.8-14.6-55-46.3-87-63.5
		C198.8-3.8,159.3-2.5,124.1,6.3c-33.7,8.5-65.3,24.1-93.8,43.7C19.7,57.3,9.7,65,0,73.1v4.1C16.8,62.9,34.7,49.9,54,38.7z"/>
</g>
</svg>
