<?xml version="1.0" encoding="utf-8"?>
<!-- Generator: Adobe Illustrator 22.1.0, SVG Export Plug-In . SVG Version: 6.00 Build 0)  -->
<svg version="1.1" id="圖層_1" xmlns="http://www.w3.org/2000/svg" xmlns:xlink="http://www.w3.org/1999/xlink" x="0px" y="0px"
	 viewBox="0 0 264.5 97.9" style="enable-background:new 0 0 264.5 97.9;" xml:space="preserve">
<style type="text/css">
	.st0{fill:#CBD4AD;}
	.st1{fill:#414833;}
	.st2{fill:none;}
</style>
<g>
	<path class="st0" d="M245.9,97.9c-0.4-4.2-0.9-8.4-1.5-12.7c-1.6-11.1-4.8-23.5-14.5-29.2c-6.2-3.7-13.9-3.7-21.1-2.8
		c-17.9,2.1-35.3,9.2-53.2,7.3c-33.8-3.5-59.2-37.8-93.2-38.2c-11.7-0.1-23.1,4-33.4,9.3C21.7,35.5,10.3,42.5,0,51v46.9H245.9z"/>
	<path class="st1" d="M60.2,59.6c-0.6,2.7-4.7,1.7-4.1-1C56.7,56,60.8,56.9,60.2,59.6z"/>
	<path class="st1" d="M99.1,12.5c-0.6,2.7-4.7,1.7-4.1-1C95.6,8.9,99.8,9.8,99.1,12.5z"/>
	<path class="st1" d="M89.8,47.5c-0.4,1.5-2.7,1-2.4-0.6C87.8,45.4,90.2,46,89.8,47.5z"/>
	<path class="st1" d="M90.3,67.8c-0.6,2.4-4.3,1.5-3.7-0.9C87.2,64.5,90.9,65.4,90.3,67.8z"/>
	<path class="st1" d="M104.3,60.6c-0.4,1.6-2.9,1-2.5-0.6C102.1,58.4,104.6,59,104.3,60.6z"/>
	<path class="st1" d="M162.7,35.7c-0.4,1.6-2.9,1-2.5-0.6C160.6,33.5,163.1,34.1,162.7,35.7z"/>
	<path class="st1" d="M110.9,63.1c-0.2,1.1-1.9,0.7-1.6-0.4C109.6,61.7,111.2,62.1,110.9,63.1z"/>
	<path class="st1" d="M118.3,77.5c-0.5,2.3-4.1,1.5-3.6-0.8C115.3,74.3,118.8,75.2,118.3,77.5z"/>
	<path class="st1" d="M123.9,61.3c-0.5,2.2-3.9,1.4-3.4-0.8C121,58.3,124.4,59.1,123.9,61.3z"/>
	<path class="st1" d="M109.9,51.4c-0.5,2.2-3.9,1.4-3.4-0.8C107,48.4,110.4,49.2,109.9,51.4z"/>
	<path class="st1" d="M137,73.6c0.2-0.1,0.4-0.2,0.6-0.2c0.2-0.1,0.4-0.1,0.6,0c0.2,0,0.4,0.1,0.6,0.3c0.2,0.1,0.3,0.3,0.4,0.4
		c0.1,0.1,0.1,0.3,0.2,0.4c0.1,0.3,0.1,0.6,0,0.9c-0.1,0.1-0.1,0.3-0.2,0.4c-0.1,0.3-0.3,0.5-0.6,0.6c-0.4,0.3-0.7,0.5-1.1,0.8
		c-0.2,0.1-0.4,0.2-0.6,0.2c-0.2,0.1-0.4,0.1-0.7,0c-0.2,0-0.4-0.1-0.6-0.3c-0.2-0.1-0.3-0.3-0.5-0.5c-0.1-0.1-0.1-0.3-0.2-0.4
		c-0.1-0.3-0.1-0.6,0-0.9c0.1-0.1,0.1-0.3,0.2-0.4c0.1-0.3,0.3-0.5,0.6-0.6C136.2,74,136.6,73.8,137,73.6z"/>
	<path class="st1" d="M135.1,62c-0.4,1.8-3.3,1.2-2.9-0.7C132.7,59.5,135.5,60.2,135.1,62z"/>
	<path class="st1" d="M104.3,24.4c-0.4,1.8-3.3,1.2-2.9-0.7C101.9,21.9,104.7,22.6,104.3,24.4z"/>
	<path class="st1" d="M146.8,49.3c-0.4,1.9-3.3,1.2-2.9-0.7C144.4,46.7,147.3,47.4,146.8,49.3z"/>
	<path class="st1" d="M152.2,61.2c0.3-1.2,2.2-0.8,1.9,0.4C153.8,62.9,151.9,62.4,152.2,61.2z"/>
	<path class="st1" d="M186.2,33.1c0.3-1.2,2.2-0.8,1.9,0.4C187.8,34.8,185.9,34.3,186.2,33.1z"/>
	<path class="st1" d="M128.6,41.3c0.3-1.2,2.2-0.8,1.9,0.4C130.2,42.9,128.3,42.5,128.6,41.3z"/>
	<path class="st1" d="M161.6,52.7c-0.5,1.9-3.5,1.2-3-0.7C159,50.1,162,50.8,161.6,52.7z"/>
	<path class="st1" d="M172,48.4c-0.7,2.8-5,1.8-4.3-1C168.4,44.6,172.7,45.6,172,48.4z"/>
	<path class="st2" d="M261.6,56.9c-0.3-7.3-2-15.1-7.7-20.1c-7.4-6.4-18.3-5.6-27-2.7c-8.9,2.9-17,7.6-26.1,9.9
		c-8.3,2-16.9,2.3-25.3,1c-8.6-1.3-17-4.3-24.5-9c-7.7-4.8-14.2-11.2-21-17.1c-7.3-6.3-15.1-11.8-24.5-14.6C96.2,1.5,86.3,1,76.7,2
		C58.8,3.9,41.5,10.6,26,19.6C16.7,25,8.1,31.2,0,38v60h263.1c-1.1-6-1.8-12.2-1.9-18.3C261.1,72.1,262,64.5,261.6,56.9z"/>
	<path class="st1" d="M26,19.6C41.5,10.6,58.8,3.9,76.7,2c9.6-1,19.5-0.6,28.8,2.2c9.4,2.8,17.2,8.3,24.5,14.6
		c6.8,5.9,13.3,12.3,21,17.1c7.4,4.6,15.8,7.7,24.5,9c8.4,1.3,17,1,25.3-1c9.1-2.2,17.3-6.9,26.1-9.9c8.7-2.9,19.6-3.7,27,2.7
		c5.8,5,7.4,12.8,7.7,20.1c0.4,7.6-0.5,15.1-0.4,22.7c0.1,6.1,0.8,12.3,1.9,18.3h1.3c-0.8-4.4-1.4-8.7-1.7-13.1
		c-0.5-7.7,0.1-15.4,0.2-23.2c0.1-6.9-0.4-14.2-3.8-20.4c-3.8-6.9-10.9-10.4-18.6-10.7c-9.3-0.4-17.9,3.4-26.2,7
		c-8.7,3.8-17.5,6.5-27.1,6.8c-9.3,0.3-18.7-1.5-27.2-5.2C143,31.8,132.2,15.8,116,7c-16.6-9-36.7-8.3-54.5-3.8
		C44.4,7.5,28.4,15.4,13.9,25.4C9.1,28.7,4.5,32.2,0,35.9v2C8.1,31.2,16.7,25,26,19.6z"/>
</g>
</svg>
