<?xml version="1.0" encoding="utf-8"?>
<!-- Generator: Adobe Illustrator 22.1.0, SVG Export Plug-In . SVG Version: 6.00 Build 0)  -->
<svg version="1.1" id="圖層_1" xmlns="http://www.w3.org/2000/svg" xmlns:xlink="http://www.w3.org/1999/xlink" x="0px" y="0px"
	 viewBox="0 0 601.7 209.7" style="enable-background:new 0 0 601.7 209.7;" xml:space="preserve">
<style type="text/css">
	.st0{fill:#CBD4AD;}
	.st1{fill:#414833;}
	.st2{fill:none;}
</style>
<g>
	<path class="st0" d="M561.2,209.7c-0.7-7.2-1.6-14.3-2.6-21.4c-3.5-24.6-10.5-51.8-32-64.4c-13.8-8.1-30.8-8.2-46.6-6.3
		c-39.4,4.7-78,20.3-117.5,16.2C288,126,231.7,50.3,156.8,49.6C131,49.3,105.9,58.3,83,70.1c-20.5,10.6-56.8,33.5-83.1,60v79.6
		H561.2z"/>
	<path class="st1" d="M152,131.5c-1.4,5.9-10.5,3.7-9.1-2.1C144.2,123.5,153.3,125.7,152,131.5z"/>
	<path class="st1" d="M238,27.5c-1.4,5.9-10.5,3.7-9.1-2.1C230.2,19.5,239.3,21.7,238,27.5z"/>
	<path class="st1" d="M217.4,104.9c-0.8,3.4-6.1,2.2-5.3-1.2C212.9,100.3,218.2,101.5,217.4,104.9z"/>
	<path class="st1" d="M218.6,149.6c-1.2,5.3-9.4,3.4-8.2-1.9C211.6,142.4,219.8,144.3,218.6,149.6z"/>
	<path class="st1" d="M249.3,133.8c-0.8,3.6-6.4,2.3-5.6-1.3C244.5,128.9,250.1,130.2,249.3,133.8z"/>
	<path class="st1" d="M378.3,78.8c-0.8,3.6-6.4,2.3-5.6-1.3C373.5,73.9,379.1,75.2,378.3,78.8z"/>
	<path class="st1" d="M264,139.4c-0.5,2.3-4.2,1.5-3.6-0.8C261,136.2,264.6,137,264,139.4z"/>
	<path class="st1" d="M280.3,171c-1.2,5.1-9.1,3.2-7.9-1.9C273.6,164.1,281.5,165.9,280.3,171z"/>
	<path class="st1" d="M292.7,135.4c-1.1,4.8-8.7,3.1-7.5-1.8C286.3,128.8,293.8,130.6,292.7,135.4z"/>
	<path class="st1" d="M261.7,113.4c-1.1,4.8-8.7,3.1-7.5-1.8C255.3,106.8,262.8,108.6,261.7,113.4z"/>
	<path class="st1" d="M321.5,162.4c0.4-0.3,0.8-0.4,1.3-0.5c0.5-0.1,0.9-0.1,1.4,0c0.5,0.1,0.9,0.3,1.3,0.6c0.4,0.2,0.7,0.6,1,1
		c0.1,0.3,0.3,0.6,0.4,0.8c0.2,0.6,0.2,1.2,0.1,1.9c-0.1,0.3-0.2,0.6-0.3,0.9c-0.3,0.6-0.7,1-1.3,1.3c-0.8,0.6-1.6,1.1-2.4,1.7
		c-0.4,0.3-0.9,0.4-1.4,0.5c-0.5,0.1-1,0.1-1.5,0c-0.5-0.1-1-0.3-1.3-0.6c-0.4-0.3-0.7-0.6-1-1c-0.1-0.3-0.3-0.6-0.4-0.9
		c-0.2-0.6-0.2-1.3-0.1-2c0.1-0.3,0.2-0.6,0.4-0.9c0.3-0.6,0.8-1,1.3-1.4C319.7,163.3,320.6,162.9,321.5,162.4z"/>
	<path class="st1" d="M317.4,136.9c-1,4.1-7.3,2.6-6.3-1.5C312,131.4,318.3,132.8,317.4,136.9z"/>
	<path class="st1" d="M249.4,53.9c-1,4.1-7.3,2.6-6.3-1.5C244,48.4,250.3,49.8,249.4,53.9z"/>
	<path class="st1" d="M343.3,108.8c-1,4.1-7.4,2.6-6.4-1.5C337.8,103.2,344.2,104.6,343.3,108.8z"/>
	<path class="st1" d="M355,135.1c0.6-2.7,4.9-1.7,4.2,1C358.6,138.8,354.4,137.8,355,135.1z"/>
	<path class="st1" d="M430,73.1c0.6-2.7,4.9-1.7,4.2,1C433.6,76.8,429.4,75.8,430,73.1z"/>
	<path class="st1" d="M303,91.1c0.6-2.7,4.9-1.7,4.2,1C306.6,94.8,302.4,93.8,303,91.1z"/>
	<path class="st1" d="M375.8,116.4c-1,4.3-7.6,2.7-6.6-1.6C370.2,110.6,376.8,112.1,375.8,116.4z"/>
	<path class="st1" d="M398.9,106.8c-1.4,6.1-11,3.9-9.6-2.2C390.8,98.5,400.3,100.7,398.9,106.8z"/>
	<path class="st2" d="M596.6,125.7c-0.8-16.2-4.3-33.3-17.1-44.4c-16.3-14.2-40.4-12.3-59.6-6c-19.6,6.4-37.6,16.9-57.7,21.7
		c-18.2,4.4-37.3,5.1-55.8,2.3c-19.1-2.9-37.6-9.6-54-19.8c-17-10.6-31.3-24.7-46.4-37.7C289.9,27.8,272.6,15.7,252,9.5
		c-20.5-6.2-42.3-7.2-63.6-5c-39.5,4.1-77.7,19-111.9,38.8C48.6,59.5,23.3,79.1-0.1,100.8v108.9h599c-1.8-11.2-2.8-22.6-3.1-33.9
		C595.4,159.1,597.4,142.4,596.6,125.7z"/>
	<path class="st1" d="M76.5,43.3c34.2-19.8,72.4-34.7,111.9-38.8c21.3-2.2,43-1.2,63.6,5c20.6,6.2,37.9,18.3,54.1,32.3
		c15.1,13,29.4,27.1,46.4,37.7c16.4,10.2,34.9,16.9,54,19.8c18.5,2.8,37.6,2.1,55.8-2.3c20.1-4.9,38.1-15.3,57.7-21.7
		c19.2-6.3,43.3-8.2,59.6,6c12.7,11.1,16.3,28.3,17.1,44.4c0.8,16.7-1.2,33.4-0.8,50.1c0.3,11.4,1.3,22.7,3.1,33.9h2.9
		c-1.2-7.5-2-14.9-2.5-22.4c-1.2-17.1,0.3-34,0.5-51.1c0.2-15.2-0.8-31.4-8.4-45C583,76,567.3,68.3,550.3,67.5
		c-20.5-0.9-39.4,7.6-57.8,15.5c-19.3,8.3-38.7,14.4-59.9,15c-20.5,0.6-41.2-3.3-60.1-11.4c-37.8-16.3-61.5-51.8-97.3-71.1
		C238.5-4.3,194.3-2.8,154.9,7.1c-37.7,9.5-73,27-105,48.9c-17.7,12.2-34.3,25.6-50,40v4.8C23.3,79.1,48.6,59.5,76.5,43.3z"/>
</g>
</svg>
