<?xml version="1.0" encoding="utf-8"?>
<!-- Generator: Adobe Illustrator 22.1.0, SVG Export Plug-In . SVG Version: 6.00 Build 0)  -->
<svg version="1.1" id="圖層_1" xmlns="http://www.w3.org/2000/svg" xmlns:xlink="http://www.w3.org/1999/xlink" x="0px" y="0px"
	 viewBox="0 0 254 199.9" style="enable-background:new 0 0 254 199.9;" xml:space="preserve">
<style type="text/css">
	.st0{fill:#CBD4AD;}
	.st1{fill:#414833;}
	.st2{fill:none;}
</style>
<g>
	<path class="st0" d="M0,0c1.9,24.9,8.7,46.6,35.9,52.1c47.5,9.4,96.6-7.4,144.7-1.8c9.4,1.1,19.4,3.4,25.6,10.6
		c11,12.8,3.9,32.8-6.1,46.3c-10,13.6-23.2,26.9-23.6,43.7c-0.3,12.2,6.7,23.7,16.1,31.4c9.5,7.7,21.2,11.9,33,14.9
		c7,1.8,19.6,2.9,28.2,2.7V0H0z"/>
	<path class="st1" d="M156.6,31.8c3.1,0,3.1-4.8,0-4.8C153.5,27,153.5,31.8,156.6,31.8z"/>
	<path class="st1" d="M144.1,48.6c-1.2,0-1.2,1.8,0,1.8C145.3,50.4,145.3,48.6,144.1,48.6z"/>
	<path class="st1" d="M170.6,38.3c-3.3,0-3.3,5.1,0,5.1C173.9,43.4,173.9,38.3,170.6,38.3z"/>
	<path class="st1" d="M182.1,43.5c1.7,0,1.7-2.7,0-2.7C180.4,40.8,180.4,43.5,182.1,43.5z"/>
	<path class="st1" d="M185.9,60c1.6,0,1.6-2.6,0-2.6C184.3,57.5,184.3,60,185.9,60z"/>
	<path class="st1" d="M200,41.5c-2.5,0-2.5,3.9,0,3.9C202.5,45.4,202.5,41.5,200,41.5z"/>
	<path class="st1" d="M171.9,72.7c-1.7,0-1.7,2.7,0,2.7C173.6,75.4,173.6,72.7,171.9,72.7z"/>
	<path class="st1" d="M152.8,88.7c2.4,0,2.4-3.7,0-3.7C150.4,84.9,150.4,88.7,152.8,88.7z"/>
	<path class="st1" d="M141.3,82.8c-3.5,0-3.5,5.4,0,5.4C144.8,88.3,144.8,82.8,141.3,82.8z"/>
	<path class="st2" d="M24.5,46.3c1.9,6.8,4.6,13.5,9.3,18.9c4.1,4.6,9.5,7.9,15.2,10c12.4,4.5,25.9,3.8,38.7,1.8
		c15.1-2.4,29.8-6.7,44.9-9.4c7.3-1.3,14.7-2.2,22.1-2.3c6.9-0.1,14.2,0.3,20.7,2.8c5.8,2.2,10.6,6,13.6,11.4
		c2.9,5.1,4.1,11,4.3,16.8c0.7,14.2-4.7,27.9-4.3,42c0.2,7.1,2.2,13.8,6.3,19.7c3.6,5.1,8.4,9.2,13.7,12.5
		c11.9,7.5,26.1,11.4,40,12.7c1.7,0.2,3.3,0.3,5,0.3V0H19.5C18.7,15.5,20.2,31.3,24.5,46.3z"/>
	<path class="st1" d="M249,183.1c-13.9-1.3-28.1-5.2-40-12.7c-5.2-3.3-10.1-7.4-13.7-12.5c-4.1-5.8-6.1-12.6-6.3-19.7
		c-0.4-14.2,5-27.8,4.3-42c-0.3-5.8-1.5-11.7-4.3-16.8c-3-5.4-7.9-9.2-13.6-11.4c-6.5-2.4-13.8-2.9-20.7-2.8
		c-7.4,0.1-14.8,1-22.1,2.3c-15,2.7-29.8,7-44.9,9.4c-12.8,2-26.3,2.7-38.7-1.8c-5.8-2.1-11.1-5.4-15.2-10
		c-4.8-5.3-7.4-12.1-9.3-18.9c-4.2-15-5.8-30.8-5-46.3h-1.3c-0.7,11.6-0.1,23.3,1.9,34.7c2.4,13.5,6.2,28.1,17.8,36.6
		c9.9,7.3,23,9.3,35.1,8.9c15-0.4,29.8-4.3,44.4-7.5c15.1-3.4,30.5-6.4,46-5c6.7,0.6,13.8,2.4,19,7c4.6,4.1,7,9.8,8.1,15.7
		c2.6,13.9-2.2,27.6-3.3,41.4c-0.6,7.3,0.1,14.8,3.2,21.5c2.6,5.6,6.6,10.4,11.4,14.3c10.4,8.7,23.9,13.6,37.1,16.1
		c5,0.9,10,1.5,15.1,1.8v-2C252.3,183.4,250.7,183.3,249,183.1z"/>
</g>
</svg>
