<?xml version="1.0" encoding="utf-8"?>
<!-- Generator: Adobe Illustrator 22.1.0, SVG Export Plug-In . SVG Version: 6.00 Build 0)  -->
<svg version="1.1" id="圖層_1" xmlns="http://www.w3.org/2000/svg" xmlns:xlink="http://www.w3.org/1999/xlink" x="0px" y="0px"
	 viewBox="0 0 285.8 225.2" style="enable-background:new 0 0 285.8 225.2;" xml:space="preserve">
<style type="text/css">
	.st0{fill:#CBD4AD;}
	.st1{fill:none;}
	.st2{fill:#414833;}
</style>
<g>
	<path class="st0" d="M0,0c2,28.5,9.2,53.6,40.3,59.8c53.1,10.6,108.1-8.3,161.9-2.1c10.5,1.2,21.8,3.8,28.7,11.9
		c12.3,14.3,4.4,36.7-6.9,51.8c-11.2,15.2-25.9,30.1-26.4,48.9c-0.3,13.6,7.4,26.5,18,35.1c10.6,8.6,23.8,13.3,37,16.7
		c8.2,2.1,23.4,3.3,33.1,3V0H0z"/>
	<path class="st1" d="M21.9,0.7c-1,17.7,0.7,35.7,5.6,52.7c2.1,7.6,5.1,15.2,10.4,21.1c4.6,5.1,10.6,8.8,17,11.1
		c13.9,5,29,4.2,43.3,2c16.9-2.7,33.4-7.5,50.2-10.5c8.1-1.4,16.4-2.5,24.7-2.6c7.7-0.1,15.8,0.4,23.2,3.1
		c6.4,2.4,11.9,6.7,15.3,12.7c3.2,5.7,4.5,12.3,4.9,18.8c0.8,15.9-5.3,31.2-4.8,47c0.2,7.9,2.4,15.5,7,22c4,5.7,9.4,10.3,15.3,14
		c13.3,8.4,29.2,12.8,44.8,14.2c2.3,0.2,4.7,0.4,7,0.4V0H22C22,0.2,22,0.4,21.9,0.7z"/>
	<path class="st2" d="M278.7,206.5c-15.5-1.4-31.5-5.8-44.8-14.2c-5.9-3.7-11.3-8.3-15.3-14c-4.6-6.5-6.8-14.1-7-22
		c-0.5-15.9,5.6-31.1,4.8-47c-0.3-6.5-1.6-13.1-4.9-18.8c-3.4-6-8.8-10.3-15.3-12.7c-7.3-2.7-15.4-3.2-23.2-3.1
		c-8.3,0.1-16.5,1.1-24.7,2.6c-16.8,3-33.3,7.8-50.2,10.5c-14.3,2.3-29.5,3-43.3-2c-6.5-2.3-12.4-6-17-11.1
		c-5.3-6-8.3-13.5-10.4-21.1c-4.8-17-6.6-35.1-5.6-52.7c0-0.2,0-0.4,0-0.7h-1.4c-1,13.5-0.3,27.1,2.1,40.4
		c2.7,15.1,6.9,31.4,19.9,41c11.1,8.2,25.7,10.4,39.2,10c16.8-0.5,33.3-4.8,49.7-8.4c16.8-3.8,34.2-7.2,51.5-5.6
		c7.5,0.7,15.5,2.6,21.3,7.8c5.1,4.6,7.9,10.9,9.1,17.6c2.9,15.6-2.5,30.9-3.7,46.3c-0.6,8.2,0.1,16.5,3.6,24.1
		c2.9,6.2,7.4,11.6,12.7,16c11.7,9.7,26.7,15.2,41.5,18c6,1.2,12.2,1.8,18.3,2v-2.2C283.4,206.8,281.1,206.7,278.7,206.5z"/>
	<path class="st2" d="M161.6,55.5c-1.6,0-1.6,2.5,0,2.5C163.2,58,163.2,55.5,161.6,55.5z"/>
	<path class="st2" d="M189,46.5c-3.7,0-3.7,5.7,0,5.7C192.7,52.2,192.7,46.5,189,46.5z"/>
	<path class="st2" d="M203.9,50.3c1.9,0,1.9-3,0-3C201.9,47.2,201.9,50.3,203.9,50.3z"/>
	<path class="st2" d="M208.2,68.7c1.8,0,1.8-2.9,0-2.9C206.3,65.9,206.3,68.7,208.2,68.7z"/>
	<path class="st2" d="M223.9,48c-2.8,0-2.8,4.3,0,4.3C226.6,52.4,226.7,48,223.9,48z"/>
	<path class="st2" d="M192.4,83c-1.9,0-1.9,3,0,3C194.4,85.9,194.4,83,192.4,83z"/>
	<path class="st2" d="M171,100.8c2.7,0,2.7-4.2,0-4.2C168.3,96.6,168.3,100.8,171,100.8z"/>
	<path class="st2" d="M158.2,94.2c-3.9,0-3.9,6.1,0,6.1C162.1,100.3,162.1,94.2,158.2,94.2z"/>
</g>
</svg>
