<?xml version="1.0" encoding="utf-8"?>
<!-- Generator: Adobe Illustrator 22.1.0, SVG Export Plug-In . SVG Version: 6.00 Build 0)  -->
<svg version="1.1" id="圖層_1" xmlns="http://www.w3.org/2000/svg" xmlns:xlink="http://www.w3.org/1999/xlink" x="0px" y="0px"
	 viewBox="0 0 90.4 88" style="enable-background:new 0 0 90.4 88;" xml:space="preserve">
<style type="text/css">
	.st0{fill:#84C02F;}
	.st1{fill:#595757;}
</style>
<g>
	<path class="st0" d="M12.7,10h16.6c7.4,0,13.3,8.7,13.3,19.4v16.6l-29.9-4.2V10z"/>
	<path class="st0" d="M54.6,11.9c-5.7,0-10.2,4.6-10.2,10.2l0,16c2.1-3.5,5.9-5.8,10.2-5.8V11.9z"/>
	<path class="st1" d="M15.4,63.1c0,2.8-2.3,5.1-5.1,5.1c-2.8,0-5.1-2.3-5.1-5.1V18.8C5.1,8.4,13.5,0,23.9,0h27.3h8.5v0
		c5.7,0,10.2,4.6,10.2,10.2H27.3c-6.6,0-11.9,5.3-11.9,11.9v8.5c0,2.8,2.3,5.1,5.1,5.1h12c5.7,0,10.2,4.6,10.2,10.2H20.5
		c-2.8,0-5.1,2.3-5.1,5.1V63.1z"/>
	<path class="st1" d="M85.3,63.1c0,2.8-2.3,5.1-5.1,5.1c-2.8,0-5.1-2.3-5.1-5.1h0V49.5c0-2.8-2.3-5.1-5.1-5.1H59.7
		c-2.8,0-5.1,2.3-5.1,5.1v13.6c0,2.8-2.3,5.1-5.1,5.1c-2.8,0-5.1-2.3-5.1-5.1V44.3c0-5.6,4.6-10.2,10.2-10.2v0h15.3
		c2.8,0,5.1-2.3,5.1-5.1V10.2h0C75,4.6,79.6,0,85.3,0v0V63.1z"/>
	<path class="st0" d="M13.7,88c-2.7-0.1-4.2-1.5-4.3-4.2c0.1-2.8,1.6-4.3,4.4-4.4c2.8,0.1,4.2,1.5,4.3,4.3
		C18,86.5,16.5,87.9,13.7,88 M13.7,86.7c1.4,0,2.1-1,2.1-2.9c0-1.9-0.7-2.9-2.1-2.9c-1.3,0-2,1-2.1,2.9
		C11.6,85.6,12.3,86.6,13.7,86.7"/>
	<path class="st0" d="M19.6,87.9v-5.6c0-1.9,1-2.9,2.9-2.8h2.8v1.4h-2c-1,0-1.5,0.4-1.5,1.4v5.6H19.6z"/>
	<path class="st0" d="M0,79.2c0-1.9,1-2.9,2.9-2.8l5.2,0v1.4l-4.4,0c-1,0-1.5,0.4-1.5,1.4l0,2.3h5.6v1.4H2.2v4.9H0V79.2z"/>
	<path class="st0" d="M34.9,84.4h-6.4c0.2,1.4,1.2,2.1,2.9,2.1c1.3,0,2.4-0.5,3.5-1.4v1.5c-0.8,1-2.1,1.4-3.9,1.4
		c-2.9-0.1-4.5-1.5-4.6-4.1c0.1-2.9,1.5-4.4,4.3-4.5C33.5,79.4,34.9,81,34.9,84.4 M28.5,83h4.3c-0.1-1.4-0.8-2.1-2.2-2.1
		C29.4,80.9,28.7,81.6,28.5,83"/>
	<path class="st0" d="M41.1,78.4c0-1.4,0.8-2.1,2.2-2.1v4.8h5.6v-4.8c1.4,0,2.2,0.7,2.2,2.1v9.3h-2.2v-5.2h-5.6v5.2h-2.2V78.4z"/>
	<path class="st0" d="M61.4,84.4h-6.4c0.2,1.4,1.2,2.1,2.9,2.1c1.3,0,2.4-0.5,3.5-1.4v1.5c-0.8,1-2.1,1.4-3.9,1.4
		c-2.9-0.1-4.5-1.5-4.6-4.1c0.1-2.9,1.5-4.4,4.3-4.5C60,79.4,61.4,81,61.4,84.4 M54.9,83h4.3c-0.1-1.4-0.8-2.1-2.2-2.1
		C55.9,80.9,55.2,81.6,54.9,83"/>
	<path class="st0" d="M66.8,82.5h1.9c0-1.2-0.6-1.7-1.9-1.7c-1.2,0-2,0.4-2.3,1.4h-1.7c0.5-1.9,1.8-2.8,4-2.8c2.3,0,3.4,1,3.4,2.9
		V88h-3.8c-2.4,0-3.6-0.8-3.6-2.5C62.8,83.5,64.1,82.5,66.8,82.5 M68.7,86.7v-2.8h-2c-1.6,0-2.3,0.5-2.3,1.5c0,0.9,0.7,1.3,2.1,1.3
		H68.7z"/>
	<path class="st0" d="M72,77.7c0-1.4,0.8-2.1,2.2-2.1v12.1H72V77.7z"/>
	<path class="st0" d="M77,78.4c0-1.4,0.8-2.1,2.2-2.1v3.3H81V81h-1.8v4.4c0,0.9,0.3,1.2,1,1.2c0.3,0,0.7-0.1,1-0.4v1.2
		c-0.5,0.4-1,0.6-1.8,0.6c-1.6,0-2.4-0.8-2.4-2.4V81h-1.4v-1.4H77V78.4z"/>
	<path class="st0" d="M82.5,77.7c0-1.4,0.8-2.1,2.2-2.1v3.8h2.2c2.3,0,3.5,1,3.5,3v5.3h-2.2v-4.9c0-1.3-0.7-1.9-2.1-1.9h-1.4v6.9
		h-2.2V77.7z"/>
</g>
</svg>
