<?xml version="1.0" encoding="utf-8"?>
<!-- Generator: Adobe Illustrator 22.1.0, SVG Export Plug-In . SVG Version: 6.00 Build 0)  -->
<svg version="1.1" id="圖層_1" xmlns="http://www.w3.org/2000/svg" xmlns:xlink="http://www.w3.org/1999/xlink" x="0px" y="0px"
	 viewBox="0 0 50 50" style="enable-background:new 0 0 50 50;" xml:space="preserve">
<style type="text/css">
	.st0{fill:#FFFFFF;}
	.st1{fill:none;stroke:#000000;stroke-width:1.0583;stroke-linecap:round;stroke-linejoin:round;stroke-miterlimit:10;}
	.st2{fill:none;stroke:#000000;stroke-width:0.6615;stroke-linecap:round;stroke-linejoin:round;stroke-miterlimit:10;}
	.st3{display:none;}
</style>
<g id="名片">
	<g>
		<circle class="st0" cx="25" cy="25" r="25"/>
		<g>
			<path d="M34.1,24.4c0,0.6-1.2,1.3-2.7,1.2c-1.5-0.1-2.8-0.9-2.8-1.5s1.3-1.4,2.9-1.4C32.9,22.8,34.1,23.8,34.1,24.4z"/>
			<path class="st0" d="M34.1,24.4c-0.2,0.3-1.2,0.7-2.7,0.6s-2.7-0.5-2.8-0.8c0.1-0.3,1.2-0.8,2.7-0.8C32.8,23.5,33.9,24,34.1,24.4
				z"/>
			<path class="st1" d="M19.3,37.7c0,0-3.6,0.1-6.7-4c-4.6-6-4.7-19.3,1.2-26c5.7-6.5,12.5-3.6,14.3-2.6c0.4,0.2,0.7,0.3,1.1,0.3
				c1.5,0,5.5,0.5,8.4,4c5.8,6.9,3.3,28.3-5.2,27.8"/>
			<g>
				<path d="M14.6,31.9c-0.9-1.2-1.3-2.6-1.7-4s-0.6-2.9-0.7-4.3c-0.3-2.9-0.1-5.9,0.8-8.8c0.4-1.4,1-2.8,1.9-4.1
					c0.8-1.3,2.1-2.2,3.4-3C19.6,7,21,6.5,22.5,6.2c1.5-0.2,3.1,0,4.2,0.9c-1.3-0.7-2.8-0.8-4.2-0.5c-1.4,0.3-2.7,0.9-3.9,1.6
					c-1.2,0.8-2.3,1.6-3,2.8c-0.8,1.2-1.3,2.5-1.7,3.8c-0.8,2.7-1.1,5.6-1,8.5c0.1,1.4,0.2,2.9,0.5,4.3
					C13.5,29.2,13.9,30.6,14.6,31.9z"/>
			</g>
			<path class="st1" d="M35.8,20.5c-4-0.9-6.5-6-6.5-6s-4.2,4.5-8.1,6c-3.8,1.4-6.6,2.7-6.3,5c0.4,3.6,1.2,6.1,1.9,8.1
				s3.6,5.9,5.3,7c1.6,1.2,6.4,1.8,9.4-2s4.2-7.7,4.3-12.6C35.8,24.2,35.8,22.4,35.8,20.5z"/>
			<g>
				<path d="M27.2,9.5c-0.3,1.3-0.9,2.5-1.6,3.6S24,15.2,22.9,16c-1.1,0.8-2.2,1.4-3.2,2.2c-0.5,0.4-1,0.8-1.5,1.2
					c-0.5,0.4-1,0.8-1.4,1.3c0.2-0.6,0.7-1.1,1.1-1.6s0.9-1,1.4-1.4c1-0.9,2.1-1.6,3.1-2.3c1-0.8,1.9-1.7,2.7-2.7
					C25.9,11.7,26.6,10.7,27.2,9.5z"/>
			</g>
			<g>
				<path d="M24.1,9.5c-1.5,1.3-3,2.5-4.3,3.9c-1.3,1.4-2.5,2.9-3.5,4.6c0.4-2,1.5-3.7,2.9-5.2C20.6,11.4,22.3,10.2,24.1,9.5z"/>
			</g>
			<g>
				<path d="M30,11.2c0.7,0.3,1.3,0.7,1.8,1.1c0.6,0.4,1,1,1.5,1.5c0.9,1.1,1.5,2.5,1.5,4c-0.3-0.6-0.6-1.2-1-1.8
					c-0.4-0.6-0.7-1.1-1.2-1.6C31.8,13.3,30.9,12.3,30,11.2z"/>
			</g>
			<path class="st2" d="M25.1,26c0,0-0.3,2.5-0.7,3.9c-0.5,1.4-0.5,2.2,0,2.4c0.4,0.2,1.2,0.3,1.4-0.8c0.1-0.6,0.6-0.6,0.8-0.3
				c0.2,0.3,1.3,1.7,1.8,0.8c0.5-0.9-0.2-1.8-1-2.5c-0.8-0.8-0.6-3.1-0.6-3.1"/>
			<path class="st2" d="M22.8,35.7c0,0,3,2.5,7.2,0"/>
			<path class="st2" d="M23.5,36.1c0,0,1-1.2,1.7-1c0.6,0.2,1.5,1.6,1.5,1.6s0.9-2,1.7-1.5c0.8,0.5,0.9,0.9,0.9,0.9"/>
			<path class="st2" d="M24.1,36.4c0,0,0.7,1.5,1.5,1.3s1-0.9,1-0.9s0.3,0.6,0.9,0.7c0.8,0.1,1.2-0.1,1.4-1.2"/>
			<path class="st2" d="M22.9,34.9c0,0-0.2,1.3-0.6,2"/>
			<path class="st2" d="M29.8,34.7c0,0,0.2,1.1,0.6,1.8"/>
			<path d="M32.6,24.2c0,0.5-0.6,0.9-1.2,0.9s-1.1-0.5-1.1-1s0.6-0.9,1.2-0.9C32.1,23.3,32.6,23.7,32.6,24.2z"/>
			<path d="M17.8,24.4c0,0.6,1.2,1.3,2.7,1.2c1.5-0.1,2.8-0.9,2.8-1.5s-1.3-1.4-2.9-1.4C18.9,22.8,17.7,23.8,17.8,24.4z"/>
			<path class="st0" d="M17.8,24.4c0.2,0.3,1.2,0.7,2.7,0.6s2.7-0.5,2.8-0.8c-0.1-0.3-1.2-0.8-2.7-0.8C19,23.5,17.9,24,17.8,24.4z"
				/>
			<path d="M19.3,24.2c0,0.5,0.6,0.9,1.2,0.9s1.1-0.5,1.1-1s-0.6-0.9-1.2-0.9C19.8,23.3,19.3,23.7,19.3,24.2z"/>
			<g>
				<path d="M31.6,8.3c1,0.1,1.9,0.6,2.6,1.3s1.3,1.5,1.7,2.4c0.9,1.7,1.5,3.6,1.9,5.5s0.6,3.8,0.6,5.8c0,1.9-0.3,3.9-1.2,5.6
					c0.6-1.8,0.6-3.7,0.5-5.6s-0.4-3.8-0.8-5.6c-0.4-1.8-0.9-3.7-1.7-5.4c-0.4-0.8-0.8-1.7-1.4-2.4C33.2,9.1,32.5,8.5,31.6,8.3z"/>
			</g>
			<path class="st1" d="M23.2,41.2c0,0,0.4,2.5-0.3,3.9c0,0,0.8,0.9,2.4,1.1c2.4,0.3,3.2-1.1,3.2-1.1c-1.1-1.4-0.6-4-0.6-4"/>
		</g>
	</g>
</g>
<g id="參考線" class="st3">
</g>
</svg>
