<?xml version="1.0" encoding="utf-8"?>
<!-- Generator: Adobe Illustrator 21.1.0, SVG Export Plug-In . SVG Version: 6.00 Build 0)  -->
<svg version="1.1" id="圖層_1" xmlns="http://www.w3.org/2000/svg" xmlns:xlink="http://www.w3.org/1999/xlink" x="0px" y="0px"
	 viewBox="0 0 119 45" style="enable-background:new 0 0 119 45;" xml:space="preserve">
<style type="text/css">
	.st0{fill:#CBCBCB;}
	.st1{fill:#F5F5F5;}
	.st2{fill:#CCCCCC;}
</style>
<g>
	<path class="st2" d="M17.9,5.9c0,0-11,1-12,9.8s-3,28.4,7,28.4s83.9,2,93.9,0s12-4.9,11-9.8c-1-4.9,1-17.7,1-20.6s3-7.8-13-7.8
		S30.8,3.9,17.9,5.9z"/>
	<path class="st1" d="M12.9,0.9c0,0-11,1-12,9.8s-3,28.4,7,28.4s83.9,2,93.9,0s12-4.9,11-9.8c-1-4.9,1-17.7,1-20.6s3-7.8-13-7.8
		S25.8-1.1,12.9,0.9z"/>
</g>
</svg>
