<?xml version="1.0" encoding="utf-8"?>
<!-- Generator: Adobe Illustrator 21.1.0, SVG Export Plug-In . SVG Version: 6.00 Build 0)  -->
<svg version="1.1" id="圖層_1" xmlns="http://www.w3.org/2000/svg" xmlns:xlink="http://www.w3.org/1999/xlink" x="0px" y="0px"
	 viewBox="0 0 208 88" style="enable-background:new 0 0 208 88;" xml:space="preserve">
<style type="text/css">
	.st0{fill:#18305F;}
	.st1{fill:#1B3058;}
	.st2{fill:#09DAC0;}
	.st3{fill:#3F86FA;}
	.st4{fill:#FFAF00;}
</style>
<g>
	<g>
		<path class="st0" d="M100.3,66.5h5.4c0.5,0,1,0.4,1,1l0,0c0,0.5-0.4,1-1,1h-3c-0.5,0-1,0.4-1,1v1.1c0,0.5,0.4,1,1,1h2.3
			c0.5,0,1,0.4,1,1v0c0,0.5-0.4,1-1,1h-2.3c-0.5,0-1,0.4-1,1v2.8c0,0.5-0.4,1-1,1h-0.4c-0.5,0-1-0.4-1-1v-9.9
			C99.3,67,99.7,66.5,100.3,66.5z"/>
		<path class="st0" d="M114.5,75v-4.4c0-0.7,0.5-1.2,1.2-1.2c0.7,0,1.2,0.5,1.2,1.2v4.1c0,1.4,0.4,1.9,1.3,1.9c0.6,0,1-0.2,1.5-0.7
			c0.2-0.2,0.3-0.5,0.3-0.8v-4.5c0-0.7,0.5-1.2,1.2-1.2s1.2,0.5,1.2,1.2c0,0,0,6.6,0,6.6c0,0.4-0.2,0.8-0.5,1
			c-0.2,0.1-0.5,0.2-0.8,0.2c-0.2,0-0.4,0-0.5-0.1c-0.2-0.1-0.2-0.3-0.2-0.5c0-0.2-0.1-0.5-0.1-0.7h-0.1c-0.8,0.9-1.6,1.5-2.9,1.5
			C115.3,78.6,114.5,77.3,114.5,75z"/>
		<path class="st0" d="M185.1,75v-4.4c0-0.7,0.5-1.2,1.2-1.2c0.7,0,1.2,0.5,1.2,1.2v4.1c0,1.4,0.4,1.9,1.3,1.9c0.6,0,1-0.2,1.5-0.7
			c0.2-0.2,0.3-0.5,0.3-0.8v-4.5c0-0.7,0.5-1.2,1.2-1.2c0.7,0,1.2,0.5,1.2,1.2c0,0,0,6.6,0,6.6c0,0.4-0.2,0.8-0.5,1
			c-0.2,0.1-0.5,0.2-0.8,0.2c-0.2,0-0.4,0-0.5-0.1c-0.2-0.1-0.2-0.3-0.2-0.5c0-0.2-0.1-0.5-0.1-0.7h-0.1c-0.8,0.9-1.6,1.5-2.9,1.5
			C186,78.6,185.1,77.3,185.1,75z"/>
		<path class="st0" d="M131.3,75.9v-9.1c0-0.6,0.5-1.2,1.2-1.2l0,0c0.6,0,1.2,0.5,1.2,1.2V76c0,0.5,0.3,0.7,0.5,0.7
			c0.1,0,0.2,0,0.3,0l0.3,1.8c-0.3,0.1-0.7,0.2-1.2,0.2C131.9,78.6,131.3,77.6,131.3,75.9z"/>
		<path class="st0" d="M142.6,66.7c0-0.8,0.6-1.3,1.4-1.3c0.8,0,1.4,0.5,1.4,1.3c0,0.7-0.6,1.3-1.4,1.3
			C143.2,68,142.6,67.4,142.6,66.7z"/>
		<path class="st0" d="M144,69.4L144,69.4c0.6,0,1.2,0.5,1.2,1.2v6.7c0,0.6-0.5,1.2-1.2,1.2l0,0c-0.6,0-1.2-0.5-1.2-1.2v-6.7
			C142.8,69.9,143.3,69.4,144,69.4z"/>
		<path class="st0" d="M153.8,76.6L153.8,76.6c0.3-0.4,0.8-0.5,1.2-0.3c0.6,0.3,1.1,0.5,1.7,0.5c0.9,0,1.3-0.4,1.3-0.9
			c0-0.7-0.9-1-1.9-1.4c-1.1-0.4-2.5-1.1-2.5-2.6c0-1.6,1.3-2.8,3.3-2.8c0.9,0,1.6,0.2,2.2,0.6c0.5,0.3,0.6,0.9,0.3,1.3l0,0
			c-0.3,0.4-0.8,0.5-1.2,0.2c-0.4-0.2-0.8-0.4-1.3-0.4c-0.8,0-1.2,0.4-1.2,0.9c0,0.7,0.9,0.9,1.8,1.3c1.2,0.5,2.5,1,2.5,2.7
			c0,1.6-1.2,2.8-3.6,2.8c-0.9,0-1.8-0.3-2.6-0.7C153.6,77.7,153.5,77.1,153.8,76.6z"/>
		<path class="st0" d="M169.7,65.6L169.7,65.6c0.6,0,1.2,0.5,1.2,1.2v2c0,0,0,0,0,0.1l-0.1,1.7c0.7-0.7,1.6-1.3,2.8-1.3
			c1.9,0,2.8,1.4,2.8,3.6v4.4c0,0.6-0.5,1.2-1.2,1.2h0c-0.6,0-1.2-0.5-1.2-1.2v-4.1c0-1.4-0.4-1.9-1.3-1.9c-0.6,0-1,0.2-1.5,0.6
			c-0.3,0.2-0.4,0.6-0.4,0.9v4.5c0,0.6-0.5,1.2-1.2,1.2l0,0c-0.6,0-1.2-0.5-1.2-1.2V66.8C168.5,66.1,169,65.6,169.7,65.6z"/>
		<path class="st0" d="M201.7,66.7c0-0.8,0.6-1.3,1.4-1.3c0.8,0,1.4,0.5,1.4,1.3c0,0.7-0.6,1.3-1.4,1.3
			C202.3,68,201.7,67.4,201.7,66.7z"/>
		<path class="st0" d="M203.1,69.4L203.1,69.4c0.6,0,1.2,0.5,1.2,1.2v6.7c0,0.6-0.5,1.2-1.2,1.2l0,0c-0.6,0-1.2-0.5-1.2-1.2v-6.7
			C201.9,69.9,202.4,69.4,203.1,69.4z"/>
	</g>
	<g>
		<path class="st1" d="M116.6,46.5c-3.3-0.2-6.4-0.4-9.2-0.4c-0.3-0.3-0.8-0.5-1.6-0.6c-1.5,0-1.8,1-1.8,1.5c-0.1,2-0.4,4.4-1.2,7.2
			c-0.2,1.2,0.4,2.1,1.7,2.3c3.2,0.3,6.7,0.5,10.2,0.5c0.9,0,1.8,0,2.6,0c1.3-0.1,2-0.8,2.2-2.1c0-1.7-0.1-3.8-0.4-6.4
			C119,47.6,118.5,46.5,116.6,46.5 M113.6,50.2c0-0.3,0-0.5,0-0.8c0.6,0,1.2,0.1,1.8,0.1c0,0.2,0.1,0.5,0.1,0.7
			C115,50.2,114.3,50.2,113.6,50.2 M115.7,53.3c0,0.2,0,0.4,0,0.7c-0.7,0-1.5,0-2.2,0c0-0.2,0-0.4,0-0.7
			C114.2,53.3,114.9,53.4,115.7,53.3 M109.9,53.2l0,0.6c-0.9-0.1-1.9-0.1-2.8-0.2c0-0.2,0.1-0.4,0.1-0.6
			C108,53.1,108.9,53.2,109.9,53.2 M110,49.3l0,0.8c-0.9-0.1-1.7-0.1-2.4-0.2c0-0.2,0.1-0.5,0.1-0.7C108.3,49.2,109.1,49.2,110,49.3
			"/>
		<path class="st1" d="M112.3,31.8c-2.4-0.1-4.9-0.1-7.4-0.1c-1.7,0-1.8,1.1-1.8,1.6c0,0.5,0.3,1.3,1.7,1.5c2,0.1,4,0.1,5.9,0.1
			c0.5,0,1,0,1.5,0c1.5,0,1.8-1,1.8-1.5c0-0.5-0.1-0.8-0.4-1.1C113.4,32,112.9,31.8,112.3,31.8"/>
		<path class="st1" d="M107.1,36.9L107.1,36.9c-0.4-0.3-0.9-0.4-1.5-0.4c-1,0.1-1.6,0.7-1.6,1.6c0,0.8,0,1.8,0.1,3.3
			c0,1.2,0.6,1.9,1.7,2.1c1.1,0.1,2.5,0.2,4.3,0.2c0.8,0,1.6,0,2.5,0c1.7-0.1,2.2-1,2.3-1.7c0-1.5-0.1-2.7-0.4-3.6
			c-0.3-0.9-1.3-1.4-3.1-1.4C110.5,36.9,109,36.9,107.1,36.9 M111.5,40.8c-1.6,0.1-2.9,0.1-3.8,0c0-0.3,0-0.7,0-1c1.6,0,2.9,0,3.7,0
			C111.4,40.3,111.5,40.6,111.5,40.8"/>
		<path class="st1" d="M120.6,27.5L120.6,27.5c-2.7-0.2-6.8-0.4-12.3-0.4c0-0.4,0.1-0.9,0.1-1.4c0-0.5-0.1-0.9-0.4-1.1
			c-0.3-0.3-0.8-0.5-1.4-0.5c-1.4,0-1.7,0.9-1.8,1.4l-0.2,1.7c-1.6,0-3.3,0-5.1,0c-0.2-0.4-0.6-0.9-1.6-1c-1.4,0-1.8,0.9-1.8,1.4
			c-0.1,1.6-0.8,3-1.9,4.4c-0.2,0.3-0.4,0.5-0.5,0.8l0,0.1c-0.1,0.4,0,0.8,0.2,1c0.2,0.3,0.6,0.5,1.2,0.6c0.1,0,0.2,0,0.3,0
			c0.6,0,1.1-0.2,1.5-0.5c0.2-0.1,0.4-0.2,0.5-0.4c0.9-0.7,1.5-1.9,2-3.6c8.4,0,14.9,0.2,19.4,0.4c-0.1,0.5-0.2,1-0.3,1.4
			c-0.1,0.5,0,0.9,0.2,1.2c0.2,0.4,0.7,0.6,1.3,0.7c1.3,0.1,1.8-0.6,2-1.2c0.2-0.7,0.4-1.7,0.5-2.9
			C122.5,28.4,121.9,27.7,120.6,27.5"/>
		<path class="st1" d="M158.3,49.3l-2.7,0c0.2-0.3,0.4-0.6,0.6-1c0.3-0.8,0.6-1.6,0.7-2.5c0-1-0.5-1.6-1.6-1.7
			c-1.3-0.1-1.8,0.6-2,1.2c-0.2,0.7-0.5,1.4-0.8,2.1c-0.1,0.4-0.4,0.9-0.9,1.6c-0.1,0.1-0.1,0.1-0.1,0.2l-1.7,0c0,0,0,0,0,0
			l-2.9-5.1c-0.4-0.6-0.9-0.9-1.6-0.9c-0.7,0-1.3,0.2-1.6,0.6c-0.3,0.3-0.4,0.8-0.3,1.3l2.3,4l-4.3,0c-1.7,0-1.8,1.1-1.8,1.6
			c0,0.5,0.2,1.4,1.8,1.5l17.1,0.2c1,0,1.7-0.6,1.8-1.5c0-0.5-0.1-0.8-0.4-1.1C159.5,49.5,159,49.3,158.3,49.3"/>
		<path class="st1" d="M158.5,33.7l-7.7-0.1c0,0,0,0,0,0l0-0.1c-0.1-0.7-0.3-1.6-0.4-2.8c-0.1-0.5-0.4-1.3-1.8-1.3
			c-0.6,0-1.1,0.2-1.4,0.5c-0.3,0.3-0.4,0.7-0.4,1.1c0.1,1,0.2,1.8,0.3,2.5l-8.3-0.2c-1.7,0-1.8,1.1-1.8,1.6c0,0.5,0.3,1.4,1.8,1.5
			l19.6,0.3c1,0,1.7-0.6,1.8-1.5c0-0.4-0.1-0.8-0.4-1.1C159.7,33.9,159.2,33.7,158.5,33.7"/>
		<path class="st1" d="M205.9,45.3L205.9,45.3c-1.5-0.1-3.3-0.9-5.5-2.2c0.5-0.4,1-0.9,1.6-1.4c1-0.9,1.6-1.7,2.1-2.3
			c0.2-0.2,0.3-0.5,0.3-0.8c0-0.5-0.1-0.8-0.3-1.1c-0.3-0.3-0.8-0.5-1.5-0.5c-0.7,0-1.2,0.3-1.6,0.8c-0.5,0.7-1.1,1.4-1.7,1.9
			c-0.7,0.6-1.3,1.2-1.8,1.6c-0.7-0.5-1.3-1-1.9-1.6c-0.6-0.5-1.3-0.6-2.2-0.3c-0.4,0.3-0.7,0.6-0.8,0.9c-0.1,0.4,0,0.8,0.3,1.2
			c0.1,0.2,0.3,0.3,0.5,0.5c1.4,1.3,3.1,2.5,5,3.6c2.8,1.7,5.2,2.7,7.2,2.9c0.1,0,0.3,0,0.4,0c1.3,0,1.7-0.8,1.8-1.4
			C207.8,46.5,207.6,45.5,205.9,45.3"/>
		<path class="st1" d="M180.5,38.1L180.5,38.1c-1.8-0.1-3.7-0.2-5.7-0.2h0c-0.9,0-1.5,0.1-1.9,0.5c-0.2,0.2-0.4,0.5-0.4,1.1
			c0.1,0.6,0.5,1.4,2.2,1.4c1.2,0,2.4,0.1,3.7,0.1c-0.4,0.8-1,1.6-1.8,2.2c-1,0.9-1.8,1.5-2.7,1.9c-1.1,0.6-1.2,1.3-1.1,1.8
			c0.2,0.5,0.6,1.1,1.8,1.1c0.1,0,0.3,0,0.5,0c1.4-0.2,2.9-1.2,4.7-3.3c1.2-1.5,2.1-2.9,2.4-4.3c0.1-0.6,0.1-1.1-0.2-1.5
			C181.8,38.5,181.2,38.2,180.5,38.1"/>
		<path class="st1" d="M190.1,30.9L190.1,30.9c-0.1-0.6-0.6-1.3-2.1-1.3c-0.6,0-1,0.2-1.3,0.6c-0.3,0.3-0.4,0.8-0.3,1.3
			c0.7,10.9,1.1,17.3,1.1,19c-0.3,0-0.6,0-0.8,0.1c-0.7,0.2-1,0.7-0.9,1.4c0.1,0.6,0.5,1.4,2.1,1.5c0.1,0,0.3,0,0.4,0
			c0.8,0,1.4-0.1,2-0.4c0.8-0.5,1.1-1.4,0.9-2.7C191.2,47.5,190.8,41,190.1,30.9"/>
	</g>
	<path class="st2" d="M49.7,75.7c-0.1-0.2-0.1-0.5-0.1-0.7c0-2.5,0.1-5,0.1-7.5c0-1.5,0.1-2.9,0.2-4.4c0.1-1.4,0.1-2.9,0.4-4.3
		c0.1-0.4,0.1-0.7,0.2-1.1c0.2-1.2,0.6-2.5,1-3.8c0.4-1.3,1-2.6,1.7-3.9c0.7-1.3,1.5-2.4,2.5-3.4c1-1,2.1-1.8,3.3-2.5
		c3.4-1.7,8-0.9,11.4,0.6c1.5,0.7,2.8,1.5,3.7,2.6c1.2,1.5,1.7,3.3,2,5c0.8,3.8,0.8,7.7,0.9,11.5c0,2.8,0.3,5.7,0.1,8.5
		c0,0.7-0.1,1.4-0.3,2c-0.2,0.6-0.2,1.2-0.6,1.7c-0.5,0.8-1.2,1-2.2,1.1c-0.5,0.1-1,0.1-1.5,0.1c-0.7,0-1.4,0-2-0.3
		c-0.7-0.2-1.1-0.6-1.4-1.1c-0.7-1.3-0.7-2.6-0.9-4c-0.3-2.8-0.8-5.6-0.9-8.4c-0.1-1.3-0.2-2.6-0.2-4c-0.1-1.6-0.3-3.2-0.4-4.8
		c-0.2-1.5-0.4-3-0.8-4.5c-0.3-1.1-0.7-3.2-2.4-3.7c-1.9-0.5-3.7,2.1-4.4,3.1c-0.9,1.2-1.7,2.5-2.2,3.8c-0.3,0.7-0.5,1.4-0.7,2.1
		c-0.5,2.1-1,4.3-1.3,6.5c-0.2,2.2-0.4,4.5-0.4,6.8c0,1.1,0,2.2,0,3.3c0,1,0.1,1.9-0.1,2.9c-0.1,0.7-1.4,1-2.2,1.2
		C51.4,76.4,50.1,76.4,49.7,75.7"/>
	<path class="st2" d="M71.1,35.7c-0.5,0.8-1.2,1.6-2.1,2c-1.3,0.6-3.2,0.6-4.5,0c-1.4-0.6-2.1-1.8-2.4-3.1c-0.2-0.9-0.3-1.8-0.3-2.7
		c0-1.2,0.1-2.3,0.3-3.5c0.2-0.8,0.4-1.5,0.6-2.2c0.2-0.6,0.6-1.2,1.1-1.6c0.9-0.7,2-0.7,3-0.8c0.8,0,1.6,0.1,2.4,0.2
		c1.1,0.3,2.3,0.7,2.9,1.6c0.7,1,0.9,2,0.9,3.2c0,1.2-0.2,2.4-0.5,3.5c-0.2,0.7-0.4,1.3-0.7,2C71.6,34.8,71.3,35.3,71.1,35.7
		 M67.2,25.5c-0.3,0-0.7,0.2-0.9,0.4c-0.5,0.4-0.8,1.1-1.1,1.7c-0.3,0.8-0.6,1.6-0.7,2.5c-0.4,1.9-0.4,3.7,0.2,5.5
		c0.1,0.3,0.3,0.6,0.5,0.8c0.8,0.6,1.4-0.5,1.8-1c0.6-0.9,1-1.9,1.4-2.9c0.4-1.1,0.6-2.3,0.7-3.5c0-0.5,0-1.1-0.1-1.5
		c-0.1-0.7-0.6-1.9-1.7-2C67.3,25.5,67.3,25.5,67.2,25.5"/>
	<path class="st3" d="M19.8,70c-0.7-0.1-1.6-0.3-1.7-0.9c-0.1-0.8-0.1-1.5-0.1-2.3c0-0.9,0-1.7,0-2.6c0-1.8-0.1-3.6-0.3-5.3
		c-0.2-1.7-0.6-3.4-1-5.1c-0.1-0.6-0.3-1.1-0.5-1.6c-0.4-1-1.1-2-1.7-3c-0.6-0.8-1.9-2.8-3.4-2.4c-1.3,0.3-1.6,2-1.9,2.9
		c-0.3,1.2-0.5,2.3-0.7,3.5c-0.1,1.3-0.3,2.5-0.3,3.8c0,1-0.1,2.1-0.2,3.1c-0.1,2.2-0.4,4.4-0.7,6.6c-0.1,1-0.1,2.1-0.7,3.1
		c-0.2,0.4-0.5,0.7-1.1,0.9c-0.5,0.2-1.1,0.2-1.6,0.2c-0.4,0-0.8,0-1.2-0.1c-0.8-0.1-1.4-0.3-1.7-0.9c-0.3-0.4-0.3-0.9-0.4-1.4
		C0.4,68,0.3,67.5,0.3,67c-0.1-2.2,0.1-4.4,0.1-6.7c0.1-3,0.1-6,0.7-9c0.3-1.4,0.6-2.7,1.6-3.9c0.7-0.9,1.7-1.5,2.9-2
		c2.6-1.1,6.2-1.8,8.9-0.4c1,0.5,1.8,1.1,2.6,1.9c0.8,0.8,1.4,1.7,1.9,2.7c0.5,1,1,2,1.3,3c0.3,1,0.6,2,0.8,3
		c0.1,0.3,0.1,0.6,0.2,0.9c0.2,1.1,0.2,2.3,0.3,3.4c0.1,1.1,0.1,2.3,0.2,3.4c0,1.9,0.1,3.9,0.1,5.8c0,0.2,0,0.4-0.1,0.6
		C21.4,70.2,20.3,70.2,19.8,70"/>
	<path class="st3" d="M5.9,36.6c-0.2-0.7-0.3-1.4-0.3-2.2c-0.1-1.3-0.1-2.5,0.1-3.8c0.2-1.2,0.5-2.3,1.4-3.2c0.8-0.8,2-1.2,3.1-1.3
		c1.2-0.1,2.4,0,3.5,0.3c1,0.3,1.9,0.6,2.3,1.6c0.4,1.2,0.5,2.4,0.6,3.6c0,1.2-0.1,2.5-0.3,3.7c-0.2,0.9-0.4,1.9-0.8,2.8
		c-0.6,1.3-1.4,2.5-2.9,3c-1.4,0.5-3.2,0.3-4.4-0.5c-0.9-0.6-1.3-1.5-1.7-2.4C6.2,37.6,6,37.1,5.9,36.6 M11.8,27.7
		c-1.1-0.1-1.8,1.1-2,1.9c-0.2,0.5-0.3,1-0.4,1.6c-0.1,1.3-0.1,2.6,0.1,3.8c0.2,1.3,0.5,2.6,1.1,3.8c0.1,0.3,0.3,0.7,0.6,0.8
		c0.3,0.1,0.8-0.1,1-0.3c0.4-0.4,0.8-1.2,1-1.8c0.5-1.4,0.7-3,0.7-4.5c0-0.8-0.1-1.5-0.2-2.3c-0.1-0.7-0.2-1.5-0.6-2.1
		c-0.1-0.1-0.2-0.3-0.3-0.4c-0.2-0.2-0.5-0.4-0.8-0.5C11.9,27.7,11.9,27.7,11.8,27.7"/>
	<g>
		<path class="st4" d="M17.2,85.3C17,84.9,17,84.5,17,84.1c-0.1-4.1,0.2-8.3,0.2-12.4c0-2.4,0.2-4.9,0.3-7.3
			c0.2-2.4,0.2-4.9,0.7-7.2c0.1-0.6,0.2-1.2,0.3-1.9c0.4-2,1-4.1,1.7-6.3c0.7-2.2,1.7-4.3,2.8-6.4c1.1-2.1,2.5-4,4.1-5.7
			c1.6-1.7,3.4-3.1,5.5-4.1c5.7-2.9,13.4-1.5,18.9,0.9c2.5,1.1,4.6,2.4,6.1,4.3c2.1,2.6,2.8,5.4,3.4,8.3c1.3,6.4,1.3,12.8,1.5,19.2
			c0,4.7,0.4,9.4,0.1,14.2c-0.1,1.1-0.2,2.3-0.5,3.4c-0.3,1-0.4,2-0.9,2.9c-0.8,1.3-2,1.7-3.7,1.9C56.9,87.9,56,88,55.2,88
			c-1.1,0-2.3-0.1-3.4-0.4c-1.2-0.4-1.8-1-2.3-1.8c-1.2-2.1-1.2-4.4-1.5-6.6c-0.6-4.7-1.3-9.3-1.5-14c-0.1-2.2-0.3-4.4-0.4-6.6
			c-0.1-2.7-0.4-5.4-0.7-8.1c-0.3-2.5-0.7-5-1.4-7.5c-0.6-1.8-1.2-5.4-4-6.1c-3.2-0.8-6.1,3.5-7.3,5.1c-1.4,2-2.8,4.1-3.7,6.3
			c-0.5,1.1-0.9,2.3-1.1,3.5c-0.9,3.6-1.7,7.1-2.1,10.8c-0.4,3.7-0.6,7.5-0.6,11.3c0,1.8,0,3.7-0.1,5.5c-0.1,1.6,0.1,3.2-0.2,4.9
			c-0.2,1.2-2.3,1.7-3.7,2C20.1,86.4,17.9,86.4,17.2,85.3"/>
		<path class="st4" d="M35,17.2c-0.1-1.3-0.1-2.6,0-3.9c0.1-2.2,0.5-4.4,1-6.6c0.5-2,1.4-3.9,3-5.3C40.5,0.2,42.4,0,44.3,0
			c1.9,0.1,3.7,0.5,5.4,1.4c1.4,0.7,2.9,1.6,3.2,3.3c0.4,2.1,0.3,4.3,0.1,6.5c-0.2,2.2-0.7,4.3-1.4,6.4c-0.5,1.6-1.1,3.2-1.9,4.7
			c-1.2,2.1-2.8,3.9-5.3,4.4c-2.3,0.5-5.1-0.4-6.8-2.1c-1.2-1.2-1.8-3-2.2-4.6C35.2,19,35.1,18.1,35,17.2 M46.5,3.2
			c-1.6-0.4-3.1,1.5-3.7,2.8c-0.4,0.8-0.7,1.7-0.9,2.7c-0.5,2.2-0.7,4.4-0.8,6.7c0,1.5,0.1,2.9,0.3,4.4c0.1,1.1,0.4,2.3,0.8,3.3
			c0.1,0.3,0.2,0.5,0.4,0.7c0.7,0.6,1.7-0.3,2.2-0.8c0.6-0.6,1-1.3,1.3-2c0.4-0.8,0.7-1.6,1-2.4c0.3-0.9,0.6-1.7,0.8-2.6
			c0.2-0.9,0.3-1.8,0.4-2.7c0-0.2,0-0.3,0.1-0.5c0.2-2,0.2-3.9,0.2-5.9c0-0.9-0.3-1.8-0.7-2.5c-0.3-0.5-0.7-0.9-1.2-1.1
			C46.6,3.2,46.5,3.2,46.5,3.2"/>
	</g>
</g>
</svg>
