<?xml version="1.0" encoding="utf-8"?>
<!-- Generator: Adobe Illustrator 22.1.0, SVG Export Plug-In . SVG Version: 6.00 Build 0)  -->
<svg version="1.1" id="圖層_1" xmlns="http://www.w3.org/2000/svg" xmlns:xlink="http://www.w3.org/1999/xlink" x="0px" y="0px"
	 viewBox="0 0 267.6 101.4" style="enable-background:new 0 0 267.6 101.4;" xml:space="preserve">
<style type="text/css">
	.st0{display:none;}
	.st1{display:inline;}
	.st2{fill:#FAD803;}
	.st3{fill:#A1C75F;}
	.st4{fill:#90CA44;}
	.st5{fill:none;stroke:#AD704B;stroke-width:0.703;stroke-miterlimit:10;}
	.st6{fill:none;stroke:#AD704B;stroke-width:0.5624;stroke-miterlimit:10;}
	.st7{fill:#9DCD86;}
	.st8{fill:#AED19B;}
	.st9{fill:#FFFFFF;}
	.st10{fill:none;stroke:#FFFFFF;stroke-width:0.7769;stroke-linecap:round;stroke-miterlimit:10;}
	.st11{fill:#006934;}
	.st12{fill:#AED19B;stroke:#FFFFFF;stroke-width:0.7769;stroke-miterlimit:10;}
	.st13{enable-background:new    ;}
	.st14{fill:#CCCCCC;}
	.st15{fill:#AD704B;}
	.st16{display:inline;fill:#FAD803;}
	.st17{display:inline;fill:#A1C75F;}
	.st18{display:inline;fill:#90CA44;}
	.st19{display:inline;fill:none;stroke:#AD704B;stroke-width:0.5624;stroke-miterlimit:10;}
	.st20{display:inline;fill:#9DCD86;}
	.st21{display:inline;fill:#AED19B;}
	.st22{display:inline;fill:#FFFFFF;}
	.st23{display:inline;fill:none;stroke:#FFFFFF;stroke-width:0.7769;stroke-linecap:round;stroke-miterlimit:10;}
	.st24{display:inline;fill:#006934;}
	.st25{display:inline;fill:#AED19B;stroke:#FFFFFF;stroke-width:0.7769;stroke-miterlimit:10;}
	.st26{display:none;enable-background:new    ;}
	.st27{display:inline;fill:#CCCCCC;}
	.st28{fill:#F6BD60;}
	.st29{fill:#BB9590;}
	.st30{fill:#84A59D;}
</style>
<g>
	<g>
		<g>
			<path class="st28" d="M161.3,44.4c0.9,0.2,2.8,0.3,5.8,0.4c1.9,0.1,3.9,0.1,6,0.1c1,0,2.1,0,3.2,0c1.3-0.1,1.6-0.9,1.7-1.5
				c0.2-1,0.3-2.2,0.3-3.6c0.1-1.5,0-3-0.1-4.6c-0.2-0.7-0.7-1.2-1.4-1.4l-0.1,0c-1,0-2.2-0.1-3.5-0.1v-1.3c0-0.8-0.6-1.4-1.5-1.4
				c0,0,0,0,0,0c-0.5,0-0.9,0.2-1.1,0.5c-0.2,0.2-0.4,0.5-0.3,1v1.1c-0.6,0-1.1,0-1.8,0l0-1.3c-0.1-0.8-0.7-1.3-1.6-1.3c0,0,0,0,0,0
				c-0.5,0-0.9,0.2-1.1,0.5c-0.2,0.2-0.4,0.5-0.3,1l0,1.1H163c-0.2-0.2-0.5-0.3-1-0.2c-0.5,0-0.9,0.1-1.1,0.4
				c-0.3,0.3-0.4,0.7-0.3,1.2c0.3,2.5,0.2,5-0.2,7.2c-0.2,0.5-0.3,1-0.1,1.4C160.4,44,160.8,44.3,161.3,44.4z M163.7,36.5
				c0.6,0,1.2,0,1.8,0l0,1.1l-1.8,0C163.7,37.2,163.7,36.8,163.7,36.5z M165.7,41.9c-0.7,0-1.5,0-2.3-0.1c0.1-0.4,0.1-0.9,0.2-1.3
				l2.1,0L165.7,41.9z M168.5,36.5l1.7,0l0,1.1l-1.7,0L168.5,36.5z M170.3,42l-1.6,0l0-1.4l1.7,0L170.3,42z M173.2,36.7
				c0.7,0,1.5,0,2.2,0.1c0,0.3,0,0.7,0,1l-2.2,0L173.2,36.7z M175.3,40.7c0,0.5-0.1,0.9-0.1,1.4c-0.6,0-1.3,0-2,0l0-1.4L175.3,40.7z
				"/>
		</g>
		<g>
			<path class="st28" d="M176.7,52.1c-0.8,0-1.9,0-3.2,0c-2.2-0.1-3.9-0.1-4.9-0.2c-0.9-0.1-1.5,0.4-1.6,1.3c0,0.8,0.3,1.3,1.1,1.6
				c0.1,0,0.3,0.1,0.5,0.1c2.3,0.2,4.7,0.3,7.3,0.3c0.3,0,0.6,0,1,0c0.9-0.1,1.4-0.6,1.4-1.4C178.2,52.6,177.7,52.1,176.7,52.1z"/>
		</g>
		<g>
			<path class="st28" d="M181.3,64.3c-0.6,0-1.2-0.1-1.9-0.4l0.2-0.2c0.6-0.7,1-1.2,1.2-1.7c0.1-0.2,0.1-0.3,0.2-0.6
				c0-0.5-0.1-0.9-0.4-1.1c-0.6-0.6-1.9-0.6-2.4,0.3c-0.3,0.5-0.6,0.9-0.9,1.2c-0.2,0.2-0.3,0.4-0.5,0.6c-0.5-0.4-0.9-0.9-1.2-1.5
				c-0.3-0.4-0.7-0.7-1.2-0.7h0c-0.4,0-0.8,0.1-1.1,0.3c-0.3,0.3-0.4,0.6-0.4,1.2c0,0.2,0.1,0.3,0.1,0.5l0.1,0.2
				c0.8,1.4,2,2.6,3.5,3.5c1.2,0.8,2.5,1.2,3.9,1.4c0.2,0,0.4,0,0.7,0c0,0,0.1,0,0.1,0c0.8-0.1,1.4-0.6,1.4-1.4
				c0-0.5-0.2-0.9-0.3-1.1C182.2,64.4,181.8,64.3,181.3,64.3z"/>
		</g>
		<g>
			<path class="st28" d="M172,63.2c-0.2,0-0.4,0-0.8,0.1c-0.1,0-0.2,0.1-0.3,0.1c0.1-1.4,0.2-2.9,0.2-4.5c2,0.1,4.1,0.2,6.3,0.2
				c0.5,0,1,0,1.6,0c0.9-0.1,1.4-0.6,1.4-1.4c0-0.9-0.6-1.5-1.5-1.5c-1.3,0.1-3,0-5,0c-3.5-0.2-6.1-0.4-7.7-0.7l0,0
				c-0.9-0.1-1.5,0.4-1.6,1.3c0,0.8,0.3,1.3,1,1.6c0.2,0.1,0.5,0.1,0.8,0.2c0.6,0.1,1.2,0.1,1.8,0.2c-0.1,2.9-0.2,4.9-0.4,6.2
				c-0.1,1,0.4,1.8,1.3,1.9c0.1,0,0.2,0,0.4,0c0.7,0,1.5-0.1,2.4-0.4c0.3-0.1,0.5-0.2,0.8-0.4c0.4-0.3,0.7-0.7,0.7-1.3
				C173.4,63.8,172.9,63.3,172,63.2z"/>
		</g>
		<g>
			<path class="st28" d="M176.3,48.9c0-0.9-0.6-1.5-1.5-1.5c-7.5-0.1-11.4-0.2-12.4-0.2c0,0,0,0,0,0c-0.5,0-0.9,0.1-1.2,0.4
				c-0.3,0.3-0.4,0.7-0.4,1.2c0,4.4-0.8,7.3-2.4,8.6c-0.3,0.3-0.5,0.7-0.5,1.1c0,0.9,0.6,1.5,1.5,1.5c0.4,0,0.7-0.1,0.9-0.3
				c0.3-0.2,0.6-0.5,0.8-0.8c1.6-1.9,2.5-4.8,2.6-8.7c4.5,0.1,8.2,0.2,11.1,0.2C175.6,50.3,176.2,49.8,176.3,48.9z"/>
		</g>
		<g>
			<path class="st28" d="M223.1,51.8c0-0.9-0.6-1.5-1.5-1.5l-6.5,0.1c-0.1-1.1-0.1-2.3-0.2-3.6c1.2,0,2.5,0,3.9,0
				c1.1-0.1,1.7-0.7,1.7-1.7c0-3-0.1-5.7-0.3-8.1c-0.2-1-0.8-1.6-1.8-1.7c-1.3-0.2-5-0.4-11.1-0.7c-0.2-0.2-0.5-0.4-1.1-0.4
				c-0.8,0-1.3,0.5-1.4,1.5c0.1,2.1-0.1,5-0.6,8.5c-0.2,0.6-0.1,1,0.1,1.4c0.2,0.4,0.6,0.7,1.2,0.8c1.2,0.2,3.2,0.3,6.2,0.4
				c0.1,1.3,0.2,2.5,0.2,3.7l-9.8,0.2c-0.9,0-1.4,0.6-1.4,1.4c0,0.9,0.6,1.5,1.5,1.5l10-0.2c0,0.6,0.1,1.2,0.1,1.7
				c-0.6,0.5-1.5,1.1-2.5,1.9c-1.8,1.3-2.6,1.5-2.9,1.6c-0.3,0-0.5,0-0.7,0c-0.9,0-1.4,0.6-1.4,1.6c0,0.4,0.3,1.4,1.7,1.4
				c1.3,0,2.8-0.6,4.5-1.8c0.5-0.4,1-0.7,1.5-1c0.1,1.2,0.1,2.2,0.1,2.8c0,0,0,0,0,0c-0.2,0-0.4,0-0.6,0.1c-0.6,0.3-0.9,0.9-0.8,1.6
				c0.1,0.5,0.4,1.3,1.9,1.4c0.1,0,0.2,0,0.3,0c0.9,0,1.5-0.4,1.7-0.7c0.4-0.4,0.5-1.2,0.5-2.2c0-0.5,0-1.3-0.1-2.4
				c1.6,0.9,3.4,1.5,5.4,1.5l0.4,0c0.7-0.1,1.2-0.6,1.4-1.4c0-0.9-0.5-1.4-1.4-1.5c-2,0-4-0.8-5.9-2.5c0-0.6-0.1-1.3-0.1-2.1
				l6.3-0.1C222.5,53.3,223.1,52.7,223.1,51.8z M207.7,39.2c0-0.6,0-1.1,0-1.6c1,0,2.1,0.1,3.3,0.2l0.1,1.6L207.7,39.2z M207.4,43.8
				c0.1-0.5,0.1-1.1,0.2-1.6l4,0.2c0,0.6,0.1,1.1,0.1,1.7C210,43.9,208.6,43.9,207.4,43.8z M214.2,38c1,0,2.1,0.1,3.2,0.2
				c0,0.4,0,0.9,0.1,1.4l-3.2-0.1C214.2,39,214.2,38.5,214.2,38z M217.5,42.5c0,0.5,0,1,0,1.5c-1,0-2,0-2.9,0c0-0.5-0.1-1.1-0.1-1.6
				L217.5,42.5z"/>
		</g>
		<g>
			<path class="st28" d="M267.3,52.2c-0.3-0.3-0.7-0.5-1.2-0.5c-1.1,0-3.3,0-6.4,0c-0.5-2.3-1.5-4.6-3-6.7c1.6-2,3.1-4,4.5-6
				c0.4-0.6,0.3-1.1,0.2-1.5c-0.1-0.4-0.5-0.8-1.5-0.9c-5.5-0.2-8.8-0.4-10.1-0.5c-1.3-0.1-2.4-0.2-3.1-0.3l0,0
				c-0.5,0-0.9,0.1-1.2,0.4c-0.3,0.3-0.4,0.6-0.4,1.2c0,0.4,0.2,1.1,1.2,1.4c0.4,0.1,1.2,0.3,4.6,0.5c2.1,0.1,4.2,0.2,6.3,0.3
				c-1.3,1.7-2.4,3.3-3.5,4.6c-0.3,0.3-0.4,0.7-0.4,1.1c0,0.4,0.2,0.7,0.5,0.9c1.4,1.7,2.3,3.6,2.9,5.6h-0.4
				c-5.2-0.2-8.6-0.3-10.1-0.5c-0.5,0-0.9,0.1-1.2,0.3c-0.3,0.3-0.4,0.6-0.4,1.1c0,0.8,0.5,1.3,1.3,1.5c1.7,0.2,5.2,0.3,10.4,0.5
				c0.3,0,0.6,0,1,0l0,0.7c0,1.6-0.3,2.9-0.8,3.8c-0.3,0.5-0.7,0.8-1.2,0.9c-0.4,0-0.8-0.1-1.1-0.3c-0.2-0.2-0.4-0.3-0.8-0.3
				c-0.8,0-1.4,0.4-1.5,1.1c-0.1,0.5,0.1,1,0.4,1.3c0.6,0.7,1.6,1.1,3,1.1c1.6,0,2.9-0.8,3.8-2.4c0.8-1.4,1.2-3.2,1.2-5.3
				c0-0.2,0-0.4,0-0.7c3,0,5.1,0,6.2,0c0.9-0.1,1.4-0.7,1.4-1.5C267.6,52.6,267.4,52.3,267.3,52.2z"/>
		</g>
	</g>
	<g>
		<path class="st29" d="M164,71.9c-0.6,0-1,0.4-1,1c0,0.1,0,0.6,0,1.5v2c0,0.9,0,1.7-0.1,2.4c-0.7-1.4-1.6-3.3-2.8-5.6v-0.3
			c0-0.6-0.4-1-1-1c-0.6,0-1,0.4-1,1c0,3.5-0.1,6.1-0.2,7.9l0,0.2c0,0.6,0.4,1,0.9,1c0.5,0,0.9-0.3,1-0.9c0.1-0.9,0.2-2.2,0.2-3.8
			c0.6,1.2,1.1,2.2,1.6,3c0.6,1.1,1.2,1.6,1.8,1.6c0.5,0,1.1-0.3,1.2-1.7c0.1-1.3,0.2-3.7,0.2-7.4C164.9,72.3,164.5,71.9,164,71.9z"
			/>
		<path class="st29" d="M172.5,76C172.5,76,172.5,76,172.5,76c-0.1-0.3-0.2-0.5-0.5-0.6c-0.4-0.3-0.9-0.4-1.4-0.4
			c-1,0-1.7,0.4-2.3,1.2c-0.5,0.6-0.8,1.4-0.8,2.3c0,0.9,0.2,1.7,0.7,2.4c0.6,0.7,1.4,1.1,2.4,1.1c0.9,0,1.7-0.3,2.2-1
			c0.6-0.6,0.8-1.4,0.8-2.4C173.8,77.2,173.4,76.3,172.5,76z M171.9,78.6c0,0.5-0.1,0.8-0.3,1.1c-0.2,0.2-0.5,0.3-0.8,0.3
			c-0.6,0-1.2-0.1-1.2-1.5c0-0.5,0.1-0.9,0.3-1.2c0.2-0.3,0.5-0.4,0.8-0.4c0.1,0,0.2,0,0.4,0.2c0.1,0,0.1,0.1,0.2,0.1
			c0.1,0.2,0.2,0.4,0.4,0.6C171.7,77.7,171.9,77.9,171.9,78.6z"/>
		<path class="st29" d="M180.1,75c-0.5,0-0.9,0.1-1.4,0.4c-0.2-0.2-0.4-0.3-0.7-0.3c-0.6,0-1,0.4-1,0.9v0.1c0,0.5,0,1.4,0,2.6
			c0,0.9,0,1.6,0,2.1V81c0,0.6,0.4,0.9,0.9,0.9c0.5,0,0.9-0.4,1-1c0-0.5,0.1-1.1,0.1-2.1c0-0.5,0-0.9,0-1.2c0.4-0.4,0.8-0.7,1.1-0.7
			c0.5,0,0.9,0.1,0.9,1.1c0,0.8-0.1,1.7-0.3,2.7c0,0.1,0,0.2,0,0.2c0,0.6,0.4,0.9,1,0.9c0.5,0,0.8-0.3,1-0.7
			c0.2-0.8,0.3-1.9,0.3-3.1c0-1-0.3-1.7-0.7-2.2C181.7,75.3,181,75,180.1,75z"/>
		<path class="st29" d="M191.2,78.4c-0.2,0-0.5,0.1-0.8,0.5c-0.4,0.7-0.8,1.1-1.3,1.1c-0.4,0-0.7-0.1-1-0.4c-0.2-0.2-0.3-0.6-0.3-1
			c0-0.5,0.1-1,0.3-1.3c0.2-0.3,0.5-0.5,0.9-0.5c0.1,0,0.4,0.1,1,0.6c0.2,0.1,0.4,0.2,0.6,0.2c0.5,0,0.8-0.3,0.8-0.8
			c0-0.2-0.1-0.5-0.3-0.7c-0.6-0.6-1.3-1-2.1-1c-0.9,0-1.7,0.4-2.2,1.2c-0.4,0.6-0.7,1.4-0.7,2.3c0,0.9,0.3,1.6,0.9,2.2
			c0.6,0.6,1.3,0.8,2.1,0.9c-0.4,0.1-0.7,0.4-0.7,0.8c0,0.2,0.1,0.5,0.4,0.7c0.5,0.3,1,0.5,1.4,0.5c0.5,0,0.9-0.2,1.3-0.5
			c0.4-0.4,0.6-0.9,0.6-1.5c0-0.9-0.1-1.7-0.2-2.6C192,78.7,191.7,78.4,191.2,78.4z M190.5,81.2c0,0.2,0,0.3,0,0.5
			c0,0.2,0,0.2-0.2,0.2c-0.1,0-0.2,0-0.4-0.1c-0.2-0.1-0.4-0.2-0.6-0.2C189.7,81.6,190.1,81.5,190.5,81.2z"/>
		<path class="st29" d="M210.4,76.4c-0.7,0-1.5-0.1-2.4-0.2l-0.3,0c-0.6,0-1,0.4-1,0.9c0,0.5,0.3,0.9,0.8,1c0.6,0.1,1.2,0.2,1.7,0.2
			c0,0.2,0,0.5-0.1,0.8c-0.5,0.6-1,1-1.6,1c-0.5,0-0.9-0.2-1.2-0.7c-0.3-0.6-0.5-1.4-0.5-2.3c0-1,0.2-1.8,0.6-2.4
			c0.4-0.6,0.8-0.8,1.3-0.8c0.1,0,0.5,0.1,1.4,0.6c0.2,0.1,0.3,0.1,0.5,0.1c0.6,0,1-0.4,1-1c0-0.2-0.1-0.5-0.5-0.8
			c-0.8-0.6-1.6-0.8-2.4-0.8c-1.1,0-2.1,0.5-2.9,1.6c-0.7,1-1.1,2.2-1.1,3.6c0,1.4,0.3,2.5,0.9,3.4c0.7,1,1.6,1.5,2.8,1.5
			c0.6,0,1.2-0.2,1.8-0.5c0.2,0.2,0.5,0.4,0.8,0.4c0.6,0,0.9-0.4,0.9-1l0-0.3c0-0.1,0-0.2,0-0.3c0-0.7,0.1-1.6,0.2-2.6
			c0-0.1,0-0.2,0-0.3C211.4,76.8,211,76.4,210.4,76.4z"/>
		<path class="st29" d="M219.7,78.4c-0.1-1-0.1-1.8-0.1-2.4c0-0.6-0.4-1-1-1c-0.6,0-0.9,0.4-0.9,1c0,0.9,0.1,2.1,0.3,3.4
			c-0.5,0.4-0.9,0.7-1.3,0.7c-0.5,0-0.6-0.2-0.6-0.2c-0.1-0.2-0.2-0.5-0.2-1.2c0-0.7,0.2-1.5,0.5-2.3c0.1-0.2,0.1-0.3,0.1-0.5
			c0-0.6-0.4-0.9-1-0.9c-0.4,0-0.7,0.2-0.9,0.6c-0.2,0.4-0.3,0.9-0.4,1.5c-0.2,0.6-0.2,1.2-0.2,1.6c0,2.8,1.7,3.3,2.7,3.3
			c0.5,0,1-0.1,1.5-0.3c0.1-0.1,0.2-0.1,0.4-0.2c0.1,0.3,0.4,0.5,0.8,0.5c0,0,0,0,0,0c0.6,0,1-0.4,1-0.9c0-0.2,0-0.3-0.1-0.4
			C220,80.3,219.8,79.7,219.7,78.4z"/>
		<path class="st29" d="M228,76C228,76,228,76,228,76c-0.1-0.3-0.2-0.5-0.5-0.6c-0.4-0.3-0.9-0.4-1.4-0.4c-1,0-1.7,0.4-2.3,1.2
			c-0.5,0.6-0.8,1.4-0.8,2.3c0,0.9,0.2,1.7,0.7,2.4c0.6,0.7,1.4,1.1,2.4,1.1c0.9,0,1.7-0.3,2.2-1c0.6-0.6,0.8-1.4,0.8-2.4
			C229.3,77.2,228.9,76.3,228,76z M227.4,78.6c0,0.5-0.1,0.8-0.3,1.1c-0.2,0.2-0.5,0.3-0.8,0.3c-0.6,0-1.2-0.1-1.2-1.5
			c0-0.5,0.1-0.9,0.3-1.2c0.2-0.3,0.5-0.4,0.8-0.4c0.1,0,0.2,0,0.4,0.2c0.1,0,0.1,0.1,0.2,0.1c0.1,0.2,0.2,0.4,0.4,0.6
			C227.2,77.7,227.4,77.9,227.4,78.6z"/>
		<path class="st29" d="M247.2,72.1c-2.2-0.1-3.9-0.2-5-0.2c-0.6,0-1,0.4-1,1c0,0.6,0.4,0.9,1,0.9c0.6,0,1.7,0,3.3,0.1l-3.6,6.3
			c-0.1,0.2-0.1,0.3-0.1,0.5c0,0.4,0.3,0.9,0.9,0.9c1.3,0.2,2.7,0.2,4.3,0.2c0.6,0,1-0.4,1-1c0-0.6-0.4-1-1-1c-0.8,0-1.7,0-2.6-0.1
			l3.6-6.2c0.2-0.3,0.2-0.5,0.2-0.7C248.2,72.5,247.8,72.1,247.2,72.1z"/>
		<path class="st29" d="M254.9,76c0-0.6-0.4-1-0.9-1c-0.6,0-1,0.4-1,1c0,1.6,0.1,3.3,0.3,5.1c0.1,0.5,0.4,0.8,1,0.8
			c0.6,0,1-0.4,1-0.9c0,0,0-0.1,0-0.3C254.9,78.9,254.9,77.3,254.9,76z"/>
		<path class="st29" d="M253.9,74.2c0.7,0,1.2-0.4,1.2-1.1c0-0.7-0.5-1.1-1.2-1.1c-0.7,0-1.2,0.5-1.2,1.1
			C252.8,73.7,253.2,74.2,253.9,74.2z"/>
		<path class="st29" d="M265.4,75.9L265.4,75.9c-0.5-0.6-1.2-0.8-2.1-0.8c0,0,0,0,0,0c-0.4,0-0.8,0.1-1.1,0.3c0-0.9,0-1.8-0.1-2.5
			c0-0.6-0.4-0.9-1-0.9c-0.6,0-1,0.4-1,0.9V73c0.1,1,0.1,2.8,0.1,5.2c0,1.2,0,2.1,0,2.7V81c0,0.6,0.4,0.9,1,0.9
			c0.4,0,0.9-0.3,0.9-0.9c0-0.8,0-1.8,0-2.8v-0.5c0.4-0.4,0.8-0.7,1.2-0.7c0.4,0,0.5,0.1,0.6,0.2c0.2,0.2,0.2,0.5,0.2,0.9
			c0,0.9-0.1,1.8-0.3,2.8c0,0.6,0.4,1,1,1c0.5,0,0.8-0.3,0.9-0.8c0.2-0.9,0.3-1.9,0.3-3.1C266.2,77.2,265.9,76.4,265.4,75.9z"/>
	</g>
	<g>
		<path class="st28" d="M100.8,23.2C88.9,21.9,77,27.6,68.3,35.9c-4.3,4.1-8,8.9-10,14.5c-2.8,7.9-2,14.2-1.2,22.5
			c1,10.2,5.3,17.1,14.5,22.4c14.6,8.4,34.4,7.2,49.3-0.7c9.9-5.2,13.1-16.3,13.7-21.5c1.1-9.7,1.2-19.7-2.3-28.8
			c-1.8-4.7-4.8-9-8.7-12.3c-4-3.4-8.3-4.3-13.1-6.1C107.4,24.6,104.3,23.5,100.8,23.2z"/>
	</g>
	<g>
		<path class="st30" d="M81.4,2.9c-4.7-2.5-10.3-3-15.5-2c-2.1,5-0.5,11.1,3.2,15c3.8,3.9,9.4,5.7,14.8,5.5c1.9-0.1,3.8-0.4,5.2-1.6
			c2.8-2.3,1-6.4-0.3-9.1C87.4,7.5,84.7,4.7,81.4,2.9z"/>
	</g>
	<g>
		<path class="st30" d="M99.5,6.4c3-2.3,6.9-3.1,10.7-2.9c0.9,2.3,1.7,5,0.6,7.3c-0.7,1.6-2.3,2.6-3.8,3.5
			c-2.3,1.3-8.7,4.8-10.9,1.9C93.9,13.1,97.2,8.2,99.5,6.4z"/>
	</g>
	<g>
		<path class="st29" d="M38,52l17.7,1.6c0.3,0,0.6,0,0.9,0c0.7,0,1.2-0.1,1.7-0.4c1.4-0.7,2-2.6,1.4-4.2c-0.5-1.2-1.6-2.2-3.1-2.7
			c-1.2-0.4-2.4-0.4-3.6-0.4c-1.2,0-2.3,0.1-3.3,0.3l-0.3,0c-1.3,0.2-2.5,0.4-3.7,0.3c-2.9-0.2-6-0.4-9.2-0.2
			c-0.5,0-1.4,0.1-2.1,0.7c-0.5,0.4-0.8,1.1-0.8,1.8c0,0.8,0.4,1.7,1.1,2.2C35.8,51.8,37,52,38,52z M50,48.3c1-0.1,2-0.3,2.9-0.3
			c1,0,2.1,0,3,0.3c0.9,0.3,1.6,0.8,1.8,1.5c0.2,0.6,0,1.4-0.5,1.6c-0.4,0.2-0.9,0.2-1.5,0.1L38.1,50c-0.7-0.1-1.6-0.1-2.1-0.6
			c-0.2-0.1-0.3-0.4-0.3-0.7c0-0.1,0-0.2,0.1-0.2c0.1-0.1,0.6-0.2,0.9-0.2c0.8,0,1.6-0.1,2.4-0.1c2.3,0,4.6,0.2,6.5,0.3
			c1.5,0.1,2.9-0.1,4.2-0.3L50,48.3z"/>
		<path class="st29" d="M80.4,31.7c-2.5-1.3-5.6-1.9-8.5-2.5c-2.8-0.6-5.7-1.1-7.8-2.2c-0.3-0.1-0.6-0.3-0.9-0.5
			c-0.2-0.1-0.5-0.3-0.7-0.4c-0.6-0.3-1.1-0.6-1.7-0.9c-1.4-0.7-2.9-1.3-4.4-1.9c-1.6-0.6-3.2-1.1-4.8-1.5c-1.7-0.4-3.4-0.7-5-0.9
			c-1.7-0.2-3.5-0.3-5.2-0.3c-1.8,0-3.5,0.2-5.2,0.5c-1.8,0.3-3.5,0.8-5.1,1.4c-1.7,0.6-3.4,1.4-5,2.4c-0.6,0.4-1.2,0.8-1.8,1.2
			c-0.8,0.6-1.6,1.1-2.5,1.6L21,28c-0.6,0.3-1.3,0.6-1.8,1c-1.4,0.8-2.8,1.8-4.1,2.8c-1.3,1-2.5,2.1-3.7,3.3
			C10.1,36.2,9,37.5,8,38.8c-1,1.3-1.9,2.7-2.7,4.1c-0.8,1.4-1.6,2.9-2.2,4.4c-0.6,1.5-1.2,3-1.6,4.6c-0.5,1.6-0.8,3.2-1,4.7
			C0.2,58.1,0,59.7,0,61.3c0,1.6,0.1,3.2,0.3,4.8c0.2,1.6,0.5,3.4,1.3,5.1c0.5,1.3,1.2,2.4,2,3.5l0.4,0.5c0.7,0.9,1.5,1.9,2.3,2.8
			c1.3,1.4,2.5,2.5,3.9,3.4c1.5,1,3,1.7,4.4,2.1c0.8,0.2,1.6,0.3,2.3,0.3c0.5,0,1-0.1,1.5-0.2c0.3-0.1,0.6-0.1,0.9-0.1
			c1.1-0.1,2.2-0.1,3.3,0c0.6,0,1.3,0.1,1.9,0.1c0.5,0,1,0,1.4,0.1c2.1,0.1,4.2,0.3,6.4,0.5c2.1,0.2,4.1,0.5,6.2,0.7
			c2,0.3,4,0.6,6,0.8c8.1,1.2,16.5,2.4,25.9,2.4c4.7,0,12.6-2.4,15.3-7.8C93.2,65.3,94.8,43.7,80.4,31.7z M83.1,79.1
			c-2.2,4.3-8.8,6.2-12.8,6.2c-9.2,0-17.5-1.2-25.5-2.3c-1.8-0.3-3.7-0.5-5.5-0.8c-2.1-0.3-4.1-0.5-6.2-0.8
			c-2.3-0.2-4.4-0.4-6.4-0.6c-2.3-0.2-4.7-0.2-6.7-0.3c-0.2,0-0.4,0-0.5,0c-0.3,0-0.6,0-0.8,0.1c-0.1,0-0.3,0-0.5,0.1
			c-0.3,0.1-0.5,0.1-0.8,0.2c-0.6,0.1-1.2,0.1-1.8-0.1c-1.2-0.2-2.4-0.7-3.6-1.6c-1.1-0.7-2.2-1.7-3.4-2.9c-0.7-0.7-1.3-1.5-1.9-2.3
			c-0.5-0.6-1.1-1.5-1.7-2.3c-1.5-2.3-1.9-5-2.1-7.6c-0.1-1.5-0.1-3.1,0-4.6C3,58.1,3.2,56.6,3.5,55c0.3-1.5,0.7-3,1.3-4.5
			c0.5-1.5,1.1-2.9,1.9-4.3c0.7-1.4,1.5-2.8,2.4-4.1c0.9-1.3,1.9-2.6,2.9-3.7c1.1-1.2,2.2-2.3,3.4-3.3c1.2-1,2.5-2,3.8-2.9
			c0.3-0.2,0.6-0.4,0.9-0.5l1.6-0.9c1-0.5,1.9-1,2.9-1.6c0.5-0.3,0.9-0.6,1.4-0.9c0.4-0.3,0.9-0.6,1.3-0.9c0.9-0.5,1.8-1,2.7-1.4
			c1.5-0.7,3.2-1.3,4.8-1.7c1.6-0.4,3.3-0.6,5-0.8c1.6-0.1,3.3-0.1,5,0c1.6,0.1,3.3,0.4,4.9,0.7c1.6,0.3,3.2,0.8,4.7,1.3
			c1.5,0.5,3,1.1,4.4,1.8c0.7,0.3,1.4,0.7,2,1c0.3,0.2,0.6,0.3,0.8,0.5c0.4,0.2,0.7,0.4,1.1,0.6c2.5,1.3,5.6,1.9,8.5,2.5
			c2.8,0.6,5.7,1.1,7.6,2C91.8,44.9,90.2,65,83.1,79.1z"/>
		<path class="st29" d="M73.3,34.2c-6.2-2.9-13.1-3.8-19-4.3c-2.6-0.2-4.6-0.4-6.9-1.3c-2.8-1.1-5.8-1.7-8.9-1.7c-0.1,0-0.1,0-0.2,0
			c-3.4,0-6.9,0.8-10.1,2.2c-6.5,2.9-12,8.4-15.5,15.6c-3,6.1-4.5,13.3-4.6,21.5c0,3.1,0.2,6.5,2.5,8.9c2.3,2.3,5.6,2.6,7.9,2.6
			c0.7,0,1.6,0,2.5-0.1c3.2-0.2,6.5-0.5,9.4-0.8c7.4-0.7,15.1-1.3,22.6-1.1c0.9,0,1.7,0.1,2.6,0.1c2.8,0.1,5.8,0.2,8.6-0.1
			c4.5-0.5,8.1-1.8,10.8-4.1c2.5-2.1,4.4-5.3,5.5-9.1c1-3.4,1.3-6.9,1.6-10.3c0.4-4.5,0.6-8.5-1.5-11.9
			C79.3,37.8,76.9,35.9,73.3,34.2z M38.6,29c2.8,0,5.5,0.5,8.1,1.6c2.6,1,4.9,1.2,7.5,1.5c5.7,0.5,12.3,1.4,18.2,4.1
			c3.2,1.5,5.3,3.1,6.5,5.2c1.7,2.9,1.6,6.6,1.2,10.7c-0.3,3.3-0.6,6.7-1.5,9.9c-1,3.5-2.7,6.3-4.9,8.2c-2.4,2-5.6,3.2-9.7,3.7
			c-2.8,0.3-5.6,0.2-8.4,0.1l-0.4,0c-0.7,0-1.5-0.1-2.2-0.1c-7.7-0.2-15.7,0.5-22.8,1.1c-3.1,0.3-6.2,0.5-9.3,0.8
			c-3.4,0.2-6.8,0.2-8.8-1.9c-1.8-1.8-2-4.8-2-7.4c0.1-7.9,1.6-14.8,4.4-20.6C17.9,38.9,23,33.7,29.1,31c2.9-1.3,6.1-2,9.3-2
			L38.6,29z"/>
		<path class="st29" d="M26.1,36.8L26.1,36.8c-0.3,0.3-0.5,0.4-0.7,0.6l-0.1,0.1c-0.1,0-0.1,0.1-0.2,0.1c-0.1,0.1-0.1,0.1-0.2,0.2
			c-0.2,0.1-0.3,0.2-0.4,0.3c-0.2,0.1-0.4,0.2-0.6,0.3c-0.2,0.1-0.4,0.3-0.5,0.5L23.4,39c-0.4,0.4-0.8,0.8-1.2,1.2
			c-0.4,0.4-0.8,0.8-1.1,1.3c-0.4,0.4-0.7,0.9-1.1,1.3c-0.4,0.5-0.7,0.9-1.1,1.4c-0.3,0.5-0.7,1-1,1.5c-0.3,0.5-0.7,1-1,1.5
			c-0.3,0.5-0.6,1.1-0.9,1.6c-0.3,0.5-0.6,1.1-0.9,1.7c-0.3,0.6-0.6,1.2-0.9,1.7c-0.3,0.6-0.5,1.2-0.8,1.8c-0.3,0.6-0.5,1.2-0.8,1.9
			c-0.3,0.6-0.5,1.3-0.7,1.9c-0.5,1.4-1,2.8-1,4.4c-0.1,1.8,0.6,3.5,1.7,4.6c1,1,2.5,1.5,4.2,1.5c1,0,2.2-0.2,3.5-0.5
			c1.1-0.3,2.2-0.6,3.3-1l0.2-0.1c1.9-0.6,3.9-1.2,5.9-1.5c4.9-0.8,10,0.1,15,1c4.6,0.8,10.3,1.8,15.7,0.8
			c4.7-0.9,10.5-3.8,12.5-9.5c1-2.9,1-6.4,0-10.3c-0.9-3.5-2.3-6-4.3-7.6c-2.1-1.8-4.8-2.6-7.2-3.4c-1.3-0.4-2.6-0.8-3.9-1.2
			l-0.2-0.1c-4-1.2-8.2-2.5-12.1-4c-4.8-1.8-11.8,1.3-14.5,2.8c-1.2,0.6-2.4,1.4-3.6,2.2C27,36,26.6,36.3,26.1,36.8z M24.7,40.4
			c0.1-0.1,0.2-0.2,0.4-0.3c0.1-0.1,0.3-0.2,0.4-0.3c0.3-0.2,0.6-0.4,0.9-0.6c0.3-0.2,0.5-0.5,0.7-0.7c0.1-0.1,0.2-0.2,0.3-0.3
			l0.1-0.1c0.3-0.3,0.6-0.5,0.7-0.7c1.1-0.8,2.2-1.5,3.4-2.1c2-1,8.7-4.3,13-2.7c4,1.5,8.2,2.8,12.3,4l0.2,0.1
			c1.3,0.4,2.6,0.8,3.9,1.2c2.2,0.7,4.7,1.5,6.5,3c1.7,1.4,2.9,3.6,3.7,6.7c0.9,3.6,1,6.6,0.1,9.2c-1.8,4.9-6.9,7.5-11.1,8.3
			C55,66,49.7,65.1,45,64.3c-5.1-0.9-10.3-1.8-15.5-1c-2.1,0.3-4.2,1-6.3,1.6c-1.2,0.4-2.3,0.7-3.4,1c-2.8,0.7-4.8,0.6-5.9-0.5
			c-0.7-0.7-1.1-1.9-1.1-3.2c0-1.3,0.5-2.6,0.9-3.8c0.6-1.6,1.2-3.2,1.9-4.7c0.8-1.8,1.7-3.5,2.6-5.1c0.9-1.6,2-3.1,3-4.4
			c0.5-0.7,1.1-1.3,1.6-2C23.4,41.6,24,41,24.7,40.4z"/>
		<path class="st29" d="M19.7,52.5c-0.5,0.7-1.3,1.7-1.3,3c0,0.9,0.4,1.8,1.1,2.5c0.8,0.8,2.1,1.3,3.5,1.3c1.5-0.1,2.8-0.6,4-1.2
			c0.3-0.1,0.6-0.3,0.9-0.4c3.8-1.6,8.3-1.8,12.2-0.4c1.2,0.4,2.3,0.9,3.5,1.5c1.6,0.8,3.5,1.6,5.4,2.1c1,0.2,2,0.3,3,0.3
			c4.2,0,8.3-1.9,10.9-5c1.9-2.2,2.8-4.8,2.6-7.2c-0.3-3.3-2.9-6.4-6.6-7.9c-1.9-0.8-3.9-1-5.7-1.2c-1.2-0.2-2.5-0.3-3.6-0.6
			c-2.9-0.7-6.1-0.6-9-0.4l-1.4,0.1c-4.4,0.2-7.7,1.1-10.3,2.9c-2.2,1.5-3.9,3.7-5.2,5.5C22.2,49,21,50.7,19.7,52.5z M20.9,55.5
			c0-0.5,0.4-1,0.8-1.6c1.3-1.7,2.6-3.4,3.9-5.1c1.3-1.7,2.8-3.6,4.6-4.9c2.2-1.5,5-2.3,9-2.5l1.4-0.1c2.8-0.1,5.8-0.3,8.3,0.3
			c1.3,0.3,2.6,0.5,3.9,0.7c1.8,0.2,3.5,0.4,5.1,1.1c2.8,1.1,4.8,3.4,5.1,5.8c0.2,1.7-0.6,3.7-2,5.4c-2.7,3.2-7.3,4.8-11.4,3.8
			c-1.7-0.4-3.3-1.1-4.9-1.9c-1.2-0.6-2.4-1.1-3.7-1.6c-2-0.7-4.2-1.1-6.3-1.1c-2.6,0-5.3,0.5-7.7,1.6c-0.3,0.1-0.6,0.2-0.9,0.4
			c-1.1,0.5-2.1,1-3.1,1c-0.6,0-1.3-0.2-1.7-0.6C21,56.1,20.8,55.9,20.9,55.5z"/>
	</g>
</g>
</svg>
