<?xml version="1.0" encoding="utf-8"?>
<!-- Generator: Adobe Illustrator 22.1.0, SVG Export Plug-In . SVG Version: 6.00 Build 0)  -->
<svg version="1.1" id="圖層_1" xmlns="http://www.w3.org/2000/svg" xmlns:xlink="http://www.w3.org/1999/xlink" x="0px" y="0px"
	 viewBox="0 0 489.2 496.5" style="enable-background:new 0 0 489.2 496.5;" xml:space="preserve">
<style type="text/css">
	.st0{fill:#E6CCB2;stroke:#414833;stroke-width:1.9727;stroke-linecap:round;stroke-linejoin:round;stroke-miterlimit:10;}
	.st1{fill:#FFFFFF;}
	.st2{fill:#414833;}
	.st3{fill:#D3A273;stroke:#414833;stroke-width:0.9864;stroke-miterlimit:10;}
	.st4{fill:#F9ECCC;}
	.st5{fill:#E6CCB2;stroke:#414833;stroke-width:1.2503;stroke-linecap:round;stroke-linejoin:round;stroke-miterlimit:10;}
	.st6{opacity:0.2;fill:#DDBEA9;}
	.st7{fill:#6C757D;stroke:#414833;stroke-width:0.9864;stroke-linecap:round;stroke-linejoin:round;stroke-miterlimit:10;}
	.st8{fill:#F8AD40;}
	.st9{fill:#EC992E;}
	.st10{fill:#FBCF94;}
	.st11{fill:#EE5A29;}
	.st12{fill:#F6D7A9;}
	.st13{fill:#D3A273;}
	.st14{opacity:0.3;fill:#7F5539;}
	.st15{fill:#E7C08C;}
	.st16{fill:none;stroke:#414833;stroke-width:1.9727;stroke-linecap:round;stroke-linejoin:round;stroke-miterlimit:10;}
</style>
<g>
	<g>
		<path class="st0" d="M336.6,43c0,0-22.5,2.8-25.8,26.7c-3.4,23.9-16.5,96.2,6.3,100.5c22.8,4.3,138.9,2.6,153.7-4.1
			s12.7-15.9,13.2-32s5.3-84.2-36.5-90.3S371.5,36.4,336.6,43z"/>
		<g>
			<path class="st1" d="M370.5,162.4c-13.7,0-25.8-0.3-35-1c0,0,0,0,0,0c-0.1,0-0.5,0-1.3,0c-2.8,0-10-0.2-15.2-1.8
				c-3.5-1.1-4.6-5.1-4.4-26.4c0.2-18.4,3.4-40,5.6-54.3c0.4-2.9,0.8-5.4,1.1-7.6c2.1-14.8,15.1-17.3,16.6-17.5c0.2,0,0.3,0,0.5-0.1
				c15-2.9,30.2-4.2,46.4-4.2c7.4,0,15,0.3,23.1,0.9c11.5,0.8,23.8,2.2,37.9,4.3c12.3,1.8,20.4,11.8,24.6,30.6
				c3.9,17.4,3.1,36.9,2.8,46.3l-0.1,2.4c-0.1,2.2-0.1,4.3-0.1,6.3c-0.2,12.2-0.4,13.4-6.7,16.3
				C458.8,159.5,412.3,162.4,370.5,162.4z"/>
			<path class="st2" d="M384.9,50.1c7.4,0,14.9,0.3,23,0.8c11.4,0.8,23.8,2.2,37.8,4.3c12,1.8,19.9,11.6,24,30
				c3.9,17.3,3.1,36.8,2.7,46.1c0,0.9-0.1,1.7-0.1,2.4c-0.1,2.2-0.1,4.4-0.1,6.3c-0.2,12.4-0.4,13-6.3,15.6
				c-7.5,3.1-53.9,6.1-95.5,6.1c-13.7,0-25.8-0.3-35-1l-0.1,0l-0.1,0c0,0-0.5,0-1.2,0c-2.8,0-9.9-0.2-14.9-1.8c-3-1-4.1-5-3.9-25.7
				c0.2-18.4,3.4-40,5.6-54.2c0.5-3,0.8-5.5,1.1-7.6c2-14.2,14.3-16.6,15.9-16.9c0.2,0,0.3,0,0.6-0.1l0.1,0
				C353.7,51.5,368.8,50.1,384.9,50.1 M384.9,48.6c-16.4,0-31.5,1.4-46.5,4.2c-0.3,0.1-0.3,0.1-0.6,0.1c-1.8,0.3-15,2.9-17.2,18.2
				c-0.3,2.2-0.7,4.7-1.1,7.6c-2.2,14.3-5.4,36-5.6,54.5c-0.2,21.6,0.9,25.9,4.9,27.2c5.3,1.7,12.5,1.9,15.4,1.9c0.8,0,1.2,0,1.2,0
				c9.7,0.7,22,1,35,1c40.1,0,88.2-2.9,96.1-6.2c6.7-3,7-4.5,7.2-16.9c0-2,0.1-4.1,0.1-6.3c0-0.7,0.1-1.5,0.1-2.4
				c0.4-9.4,1.2-28.9-2.8-46.5c-4.3-19.1-12.6-29.3-25.3-31.2c-14.1-2.1-26.5-3.5-38-4.3C400,48.9,392.4,48.6,384.9,48.6L384.9,48.6
				z"/>
		</g>
		<path class="st3" d="M299.6,194.1c-0.8,0.8,0.1,1.8,8.6,2c15.1,0.3,175.9,2.7,175.9,2.7s8,0.3,4-4.1L299.6,194.1z"/>
		<g>
			<path class="st4" d="M321.1,157.9c-3.9-1.2-5-5.3-4.8-26c0.2-17.7,3.3-38.4,5.4-52c0.4-2.7,0.8-5.2,1.1-7.3
				c2.1-14.6,14.9-17.1,16.7-17.3c0.2,0,0.3,0,0.6-0.1c21.1-3.9,42.6-4.9,67.6-3.2c11.1,0.8,23.2,2.1,36.9,4.1
				C456.8,58,464.8,67.7,469,86c3.9,16.8,3.1,35.5,2.8,44.4c0,0.9-0.1,1.6-0.1,2.3c-0.1,2.1-0.1,4.1-0.1,6
				c-0.2,11.9-0.4,13.3-6.9,16.2c-10.2,4.2-88.8,7.5-127.4,4.8C337.2,159.7,327.6,159.9,321.1,157.9z"/>
		</g>
		<path class="st5" d="M337.7,180.2c0,0-12.1-0.2-16.5,1.6s-20.3,8.6-20.3,8.6s-8.8,2.9,6.3,3.2c15.1,0.3,175.9,2.7,175.9,2.7
			s8,0.3,4-4.1c-4-4.4-9.9-8.8-9.9-8.8s-2.4-2.4-17.5-2.6C444.6,180.5,337.7,180.2,337.7,180.2z"/>
		<g>
			<path class="st2" d="M323.3,183.9c5.1-0.1,10.3-0.1,15.4-0.1l15.4,0c10.3,0,20.6,0.2,30.9,0.2l30.9,0.5l15.4,0.4
				c5.1,0.2,10.3,0.3,15.4,0.5c-5.1,0.1-10.3,0.1-15.4,0.1l-15.4,0l-30.9-0.2c-10.3-0.2-20.6-0.3-30.9-0.5l-15.4-0.4
				C333.6,184.2,328.5,184.1,323.3,183.9z"/>
		</g>
		<g>
			<polygon class="st2" points="312.3,189.7 331.9,189.5 351.5,189.5 390.7,189.6 429.8,190.1 449.4,190.4 469,190.9 449.4,191 
				429.8,191.1 390.6,190.9 351.5,190.4 331.9,190.1 			"/>
		</g>
		<g>
			<path class="st2" d="M355.9,181.6c-4.5,2.1-9.1,3.9-13.8,5.6c-4.7,1.7-9.4,3.3-14.2,4.5c4.5-2.2,9.1-3.9,13.8-5.6
				C346.4,184.4,351.1,182.8,355.9,181.6z"/>
		</g>
		<g>
			<path class="st2" d="M390.2,181.4c-4.2,2.3-8.5,4.3-12.8,6.3c-4.4,1.9-8.8,3.7-13.3,5.1c4.2-2.4,8.5-4.4,12.8-6.3
				C381.2,184.6,385.6,182.8,390.2,181.4z"/>
		</g>
		<g>
			<path class="st2" d="M418.2,182.2c-2.9,2.2-6,4.1-9.2,5.9c-3.2,1.8-6.4,3.5-9.8,4.8c2.9-2.2,6-4.1,9.2-5.9
				C411.6,185.2,414.8,183.5,418.2,182.2z"/>
		</g>
		<g>
			<path class="st2" d="M444.9,182.2c-2.9,2.2-6,4.1-9.2,5.9c-3.2,1.8-6.4,3.5-9.8,4.8c2.9-2.2,6-4.1,9.2-5.9
				C438.2,185.2,441.5,183.5,444.9,182.2z"/>
		</g>
		<path class="st6" d="M317.6,154c34.4-1.7,91.6-9.3,110.7-25.2c22.9-19,17-71,17-71l-0.8-1.7C456.8,58,464.8,67.7,469,86
			c3.9,16.8,3.1,35.5,2.8,44.4c0,0.9-0.1,1.6-0.1,2.3c-0.1,2.1-0.1,4.1-0.1,6c-0.2,11.9-0.4,13.3-6.9,16.2
			c-10.2,4.2-88.8,7.5-127.4,4.8c0,0-9.6,0.3-16.1-1.8C319.5,157.4,318.3,156.4,317.6,154L317.6,154z"/>
		<circle class="st7" cx="395.2" cy="44.3" r="2.5"/>
	</g>
	<g>
		<path class="st8" d="M6.8,214.5c1.7-6.5,3.5-12.8,5.4-19.2c2.4-7.9,4.8-15.7,7.3-23.6c4.9-15.7,10-31.3,15.2-47
			C45.1,93.5,56,62.5,67.4,31.7c2-5.4,3.9-10.8,6.4-16c0.3,1.8,2.1,3.2,3.9,3.4c1.9,0.1,3.7-0.8,4.9-2.2c0.3,2.5,2,4.7,4.3,5.6
			s5.1,0.5,7-1.1c-0.2,1.6,0.4,3.4,1.5,4.6c1.1,1.2,2.8,1.9,4.5,1.7c-2.9,7.4-6.2,14.7-9.2,22.2c-3,7.6-5.9,15.2-8.7,22.9
			c-5.6,15.3-10.9,30.8-16.1,46.3c-2.1,6.4-4.2,12.9-6.3,19.3c-1.1,3.3-2.1,6.5-3.2,9.8c-0.5,1.6-1.1,3.3-1.6,4.9
			c-0.5,1.5-1.3,3.1-1.5,4.7c-0.7,5.1-3.4,10.6-5,15.5c-1.6,5.1-3.1,10.3-5,15.4c-3.7,9.9-7,20.1-10.4,30.1
			c-0.2,0.7-0.7,3.3-1.3,3.7c-0.8,0.5-2-0.2-3-0.6c-2.5-0.9-5-1.7-7.5-2.5C16.5,217.8,11.7,216.2,6.8,214.5z"/>
		<path class="st9" d="M100.1,27.8c-0.6,1.7-1.3,3.3-2,4.9c-6.9-2.8-15.2-4.7-21-0.4c-7.2,5.3-10.6,20.7-13.6,28.8
			c-13.8,37.5-27,75.3-41.1,112.8c-4.9,13-9.9,25.9-15,38.8c1.5-5.8,3.2-11.6,4.9-17.4c2.4-7.9,4.8-15.7,7.3-23.6
			c4.9-15.7,10-31.3,15.2-47C45.1,93.5,56,62.5,67.4,31.7c2-5.4,3.9-10.8,6.4-16c0.3,1.8,2.1,3.2,3.9,3.4c1.9,0.1,3.7-0.8,4.9-2.2
			c0.3,2.5,2,4.7,4.3,5.6c2.3,0.9,5.1,0.5,7-1.1c-0.2,1.6,0.4,3.4,1.5,4.6C96.7,27.2,98.4,27.9,100.1,27.8z"/>
		<g>
			<path class="st10" d="M76.7,13.3c-1.1,0.9-2.2,1.8-3.3,2.6c0.6,1.8,2.3,3.1,4.2,3.3c1.9,0.2,3.8-0.9,4.7-2.5
				c0.4,2.4,2,4.5,4.3,5.6c2.2,1,4.9,0.9,7-0.3c0.4,1.4,0.9,2.8,1.8,3.9c0.9,1.1,2.2,2,3.7,2.1c0.2,0,0.5,0,0.6-0.2
				c0.1-0.1,0.1-0.2,0.1-0.3c0-8.8-0.9-17.6-2.7-26.3c-0.1-0.4-0.2-0.8-0.5-1c-0.5-0.3-1.1,0-1.5,0.4c-7.1,5-14.1,10.1-21.1,15.2
				c2.4-1.8,4.6-3.2,7.1-4.9"/>
			<path class="st2" d="M90.3,7.1c2-1.8,4.3-3.3,6.6-4.6c0.2,1.2,0.5,2.5,0.7,3.7c0.3,1.5,0.6,3,1,4.5c-1.6,0.7-3.2,0.4-4.8-0.3
				C93.4,10.2,89.7,7.6,90.3,7.1z"/>
			<path class="st2" d="M21.3,244.4c-2.5,1.6-5.7,2.1-8.6,1.5c-2.9-0.6-5.6-2.3-7.6-4.4c-0.9-0.9-1.7-2-2.2-3.2
				c-0.6-1.6-0.6-3.3-0.4-5c0.2-3.1,0.9-6.2,1.5-9.2c-0.4,1.7,21.7,8.7,24.2,9.3C26.9,237.5,25.2,241.8,21.3,244.4z"/>
			<path class="st11" d="M4.7,222c0.9-2.5,1.8-5,2.4-7.6c8.5,2.3,16.9,5,25.2,8c0.4,0.2-3.4,9.3-3.7,10.4c0,0.1-0.1,0.2-0.2,0.2
				c-0.1,0-0.1,0-0.2,0c-4.1-1.6-8.1-3.2-12.1-5C15.2,227.5,4.5,222.5,4.7,222z"/>
			<g>
				<g>
					<path class="st2" d="M7,213.9c4.3,1.3,8.6,2.8,12.8,4.3c4.2,1.5,8.4,3.2,12.6,4.8c-0.3,0.2-0.5,0.3-0.8,0.5
						c0.9-3.3,2.1-6.6,3.3-9.8c0.2-0.5,0.9-0.2,0.7,0.3c-1.1,3.2-2,6.5-2.9,9.8c-0.1,0.3-0.5,0.4-0.8,0.3c-4.1-1.8-8.4-3.3-12.6-4.8
						c-4.2-1.6-8.4-3.1-12.6-4.6C6.2,214.5,6.5,213.8,7,213.9L7,213.9z"/>
				</g>
				<g>
					<g>
						<path class="st2" d="M6.4,214.2c3.7-13.1,7.5-26.1,11.5-39.1c4-13,8.1-26,12.4-38.9c4.3-12.9,8.7-25.8,13.2-38.6
							c4.5-12.8,9.1-25.6,13.9-38.3c4.8-12.7,9.7-25.4,14.7-38.1c0.6-1.6,1.2-3.1,1.9-4.7c0.3-0.7,1.4-0.2,1.1,0.5
							c-5,12.6-9.9,25.3-14.7,38c-4.8,12.7-9.5,25.5-14,38.3c-4.6,12.8-9,25.7-13.3,38.6c-4.3,12.9-8.5,25.8-12.6,38.8
							c-4.1,13-8,26-11.9,39c-0.5,1.6-1,3.2-1.4,4.8C6.9,214.9,6.3,214.7,6.4,214.2L6.4,214.2z"/>
					</g>
					<g>
						<path class="st2" d="M32.4,222.1c3.4-12.6,7.5-25.1,11.5-37.5c4.1-12.8,8.3-25.6,12.6-38.4c4.3-12.9,8.8-25.7,13.3-38.5
							c4.5-12.7,9.1-25.4,13.8-38.1c4.6-12.4,9.3-24.8,14.1-37.1c0.6-1.5,1.2-3.1,1.8-4.6c0.3-0.8,1.6-0.3,1.3,0.5
							c-4.8,12.3-9.4,24.6-14,36.9c-4.7,12.6-9.3,25.2-13.8,37.8c-4.6,12.8-9.1,25.6-13.5,38.5c-4.4,12.8-8.7,25.6-12.9,38.4
							c-4.2,12.5-8.2,25.1-12.3,37.7c-0.5,1.5-1,3-1.5,4.5C32.8,222.5,32.4,222.3,32.4,222.1L32.4,222.1z"/>
					</g>
					<g>
						<path class="st2" d="M75,16.7c0.4,1.4,2,2.2,3.4,2.1c1.6-0.1,3-1.3,3.9-2.6c0.4-0.5,1-0.1,1,0.4c-0.1,2.3,1.5,4.3,3.6,5.1
							c2.4,1,5.1,0.3,7.1-1.1c0.4-0.3,1,0,0.9,0.5c-0.7,3.4,1.9,6.6,5.4,6.4c0.7,0,0.8,1,0.1,1.1c-4.2,0.4-7.6-3.5-6.7-7.6
							c0.3,0.2,0.6,0.3,0.9,0.5c-2.4,1.7-5.6,2.4-8.4,1.2c-2.5-1.1-4.2-3.6-4.1-6.3c0.3,0.1,0.7,0.3,1,0.4c-1.2,1.6-3,3-5,3
							c-1.8,0-3.5-1.2-3.9-3C74.2,16.5,74.9,16.3,75,16.7L75,16.7z"/>
					</g>
					<g>
						<path class="st2" d="M100.1,27.3c-0.9-4.2-1.5-8.4-2.1-12.6C97.3,10.4,96.7,6.2,96,2c0.3,0.1,0.7,0.3,1,0.4
							C90.1,7.7,82.9,12.6,75.3,17c-0.6,0.4-1.3-0.5-0.7-0.9c7.5-4.5,14.7-9.3,21.6-14.6c0.4-0.3,0.9,0,1,0.4
							c0.6,4.2,1.2,8.4,1.8,12.7c0.6,4.2,1.3,8.5,1.7,12.7C100.8,27.7,100.2,27.7,100.1,27.3L100.1,27.3z"/>
					</g>
					<g>
						<path class="st2" d="M89.1,7.5c1.8,2.5,5,3.8,8,2.7c0.6-0.2,1,0.7,0.4,0.9c-3.2,1.1-7.4-0.2-9-3.4C88.3,7.5,88.8,7.2,89.1,7.5
							L89.1,7.5z"/>
					</g>
					<g>
						<path class="st2" d="M8.5,210c-1.5,4.5-2.9,9.1-4.3,13.6c-0.1-0.3-0.2-0.5-0.3-0.8c4.5,2.4,9.1,4.6,13.9,6.5
							c2.4,0.9,4.8,1.8,7.2,2.6c0.6,0.2,1.2,0.4,1.8,0.6c0.3,0.1,0.5,0.2,0.8,0.3c0.4,0.1,0.4-0.2,0.5-0.5c0.5-1.2,0.9-2.5,1.4-3.7
							c1-2.8,2.1-5.7,3.1-8.5c0.3-0.7,1.3-0.2,1.1,0.5c-1,2.7-2,5.4-3,8c-0.5,1.4-1,2.7-1.5,4.1c-0.2,0.4-0.3,1-0.7,1.2
							c-0.4,0.3-1,0.2-1.5,0.1c-5.3-1.5-10.4-3.5-15.4-5.8c-2.8-1.3-5.5-2.7-8.2-4.1c-0.3-0.2-0.4-0.5-0.3-0.8
							c1.5-4.5,3.2-8.9,4.9-13.4C8.2,209.5,8.7,209.7,8.5,210L8.5,210z"/>
					</g>
					<g>
						<path class="st2" d="M28.9,232.3c-1.1,3.7-2.3,7.6-4.9,10.7c-2.4,2.7-5.6,4.4-9.2,4.2c-3.7-0.2-7.4-2-10.3-4.2
							c-1.3-1-2.6-2.2-3.4-3.7c-0.9-1.6-1.2-3.4-0.9-5.3c0.3-2.4,1-4.7,1.7-7c0.6-2.3,1.3-4.7,2.1-7c0.2-0.7,1.3-0.3,1.1,0.5
							c-1.3,3.8-2.4,7.6-3.3,11.5c-0.4,1.8-0.7,3.6-0.1,5.4c0.5,1.5,1.5,2.7,2.7,3.7c2.5,2.2,5.9,4,9.2,4.5c3.4,0.6,6.6-0.6,9.1-3
							c2.9-2.9,4.4-6.9,5.8-10.7C28.4,231.6,29,231.8,28.9,232.3L28.9,232.3z"/>
					</g>
					<g>
						<path class="st2" d="M94.5,22c-0.6,1.8-1.2,3.6-1.8,5.4c-1.7,4.8-3.3,9.6-5,14.4c-2.5,7.2-5,14.3-7.5,21.5
							c-3,8.7-6.1,17.4-9.1,26.1c-3.3,9.5-6.6,19.1-10,28.6c-3.4,9.6-6.7,19.2-10.1,28.9c-3.1,9-6.3,17.9-9.4,26.9
							c-2.6,7.6-5.3,15.2-7.9,22.7c-1.9,5.4-3.8,10.9-5.7,16.3c-0.9,2.6-1.7,5.2-2.7,7.7c0,0.1-0.1,0.2-0.1,0.3
							c-0.3,0.7-1.4,0.3-1.1-0.5c0,0,0-0.1,0-0.1c0-0.1,0.1-0.2,0,0c0-0.1,0.1-0.2,0.1-0.3c0.1-0.3,0.2-0.7,0.4-1
							c0.5-1.3,0.9-2.6,1.4-4c1.7-4.8,3.4-9.6,5-14.4c2.5-7.2,5-14.3,7.5-21.5c3-8.7,6.1-17.4,9.1-26.1c3.3-9.5,6.7-19,10-28.6
							c3.4-9.6,6.7-19.2,10.1-28.8c3.2-9,6.3-17.9,9.5-26.9c2.7-7.6,5.3-15.1,8-22.7c1.9-5.4,3.8-10.9,5.8-16.3
							c0.9-2.6,1.8-5.2,2.8-7.7c0-0.1,0.1-0.2,0.1-0.3C94,21.3,94.6,21.6,94.5,22L94.5,22z"/>
					</g>
					<g>
						<path class="st2" d="M82.8,17.5c-0.6,1.8-1.2,3.6-1.8,5.4c-1.6,4.9-3.2,9.7-4.9,14.5c-2.4,7.2-4.8,14.4-7.2,21.6
							C66,67.8,63,76.5,60.1,85.2c-3.2,9.6-6.4,19.1-9.7,28.7c-3.3,9.7-6.5,19.3-9.8,29c-3,9-6.1,18-9.1,27
							c-2.6,7.6-5.2,15.3-7.7,22.9c-1.8,5.5-3.7,10.9-5.5,16.4c-0.9,2.6-1.7,5.2-2.6,7.8c0,0.1-0.1,0.2-0.1,0.3
							c-0.2,0.7-1.4,0.3-1.1-0.5c0,0,0-0.1,0-0.1c0-0.1,0.1-0.2,0,0c0-0.1,0.1-0.2,0.1-0.3c0.1-0.3,0.2-0.7,0.3-1
							c0.4-1.3,0.9-2.6,1.3-4c1.6-4.8,3.3-9.7,4.9-14.5c2.4-7.2,4.9-14.4,7.3-21.5c3-8.7,5.9-17.5,8.9-26.2
							c3.2-9.6,6.5-19.1,9.7-28.7c3.3-9.6,6.5-19.3,9.8-28.9c3.1-9,6.1-18,9.2-27c2.6-7.6,5.2-15.3,7.8-22.9
							c1.9-5.5,3.7-10.9,5.6-16.4c0.9-2.6,1.7-5.2,2.7-7.8c0-0.1,0.1-0.2,0.1-0.3C82.3,16.8,82.9,17.1,82.8,17.5L82.8,17.5z"/>
					</g>
				</g>
			</g>
		</g>
	</g>
	<g>
		<path class="st13" d="M228,475.2l-0.1-0.2c-12.8-52.9-10.4-106.4-6.3-140.9l0,0.1c1.3-0.3,2.6-0.7,3.9-1.1l0,0
			c2.8-23.4,6.3-38.2,6.3-38.2s2.5-14.8-15.5-17.9l0,0c-0.6,8.4-0.3,15-0.3,15c-46.4,15.2-66-8.3-66-8.3s-0.6-5.7-1.5-14.5l-0.5-0.3
			c-12.3-0.2-16.7,11.6-16.7,11.6s-1.9,9.9-4.5,25.7l0,0c0.9,1.5,1.8,3.1,2.9,4.6l0,0c-6.9,41.9-18.1,124.4-10.8,177.1
			C118.9,488.1,178.7,513.7,228,475.2z"/>
		<path class="st14" d="M227.4,474.4c-12.8-52.9-10.4-106.4-6.3-140.9l3.9-1c2.8-23.4,6.3-38.2,6.3-38.2s2.5-14.8-15.5-17.9l6.7,6.8
			c0,0,3.9,2,2,10.9s-2,28.6-6.9,32.6c-4.9,3.9-42.4,11.8-65.1,0s-3.9,7.9,0,10.9c3.9,3,31.6,14.8,57.2,7.9c0,0-10.9,69,0,93.7
			c10.9,24.7,12.8,23.7,12.8,23.7L227.4,474.4z"/>
		<path class="st12" d="M230.1,156.7c1.6-3.2,3.1-5.7,4.2-7.4c4.3-7.1,21.5-28.4,0-29.8c-3.9-0.3-7.5,1.5-10.7,4.5l-0.9-0.6
			c-6.8-4.5-12.8-2.9-17.9,1.8l0,0c-9.9-8.1-17.9-3.7-24.2,5.2l-0.3-0.1c0,0-25.9-20.1-36.2,37.6c-4.3,24.1,5.6,113.8,5.6,113.8
			s19.5,21.2,66,8.2c0,0-1.4-28.4,7.2-41.1s30.1-34.1,25.8-72.4C248.6,176.3,245.9,154.2,230.1,156.7"/>
		<path class="st15" d="M166.4,168.8c0,0,16.8-58.2,35.5-40.4l3-3c-27.2-22.9-40.8,50-40.8,50L166.4,168.8z"/>
		<path class="st15" d="M185.1,168.8c0,0,17.8-56.2,35.5-40.4l2.1-4.5c-25.8-17.2-40.1,53-40.1,53L185.1,168.8z"/>
		<path class="st15" d="M204.8,163.8c0,0,12.5-38.9,26.6-41.4c5.6-1,12.8,1,13.8,7.9c0,0,1.3-9.9-11.1-10.8
			c-21.5-1.4-33,57.3-33,57.3L204.8,163.8z"/>
		<path class="st15" d="M226.5,194.4c-2-23.7,3-32.6,7.5-36.9l0,0c-1.2-0.1-2.6-0.1-4,0.1l0,0c-5.1,10-10.9,26.4-4.4,42.7
			L226.5,194.4z"/>
		<path class="st15" d="M180.4,130.4l-0.3-0.1c0,0-25.9-20.3-36.2,37.9c-4.3,24.4,5.6,114.9,5.6,114.9s2,2,3.9,3
			c-1.8-16.8-10.7-91.9-6.9-113.4c8.1-45.9,25.2-42.6,32.4-39.3L180.4,130.4z"/>
		<g>
			<path class="st2" d="M167.2,279c1.5,1.1,3.2,1.7,5,1.8c0.4,0,0.7-0.3,0.7-0.7c0-0.4-0.3-0.8-0.7-0.7c-1.6,0.1-3.1-0.3-4.4-1.1
				c-0.2-0.1-0.5-0.1-0.6,0.1C167,278.5,167,278.9,167.2,279L167.2,279z"/>
		</g>
		<g>
			<path class="st2" d="M157.1,266.1c0.2,5.3,0.4,10.7,1,15.9c0.2,1.4,2.1,1.1,1.9-0.2c-0.8-5.2-1.4-10.4-1.6-15.7
				C158.4,265.3,157.1,265.3,157.1,266.1L157.1,266.1z"/>
		</g>
		<g>
			<path class="st2" d="M244.1,194.8c-1.2,0.2-2.4,0.3-3.6,0.5c-1.2,0.2-2.4,0.3-3.6,0.6c-0.3,0.1-0.5,0.4-0.4,0.7
				c0.1,0.3,0.4,0.5,0.7,0.4c1.2-0.2,2.4-0.5,3.6-0.7c1.2-0.3,2.4-0.6,3.6-0.9C244.7,195.4,244.6,194.7,244.1,194.8L244.1,194.8z"/>
		</g>
		<g>
			<path class="st2" d="M242.5,191.8c-1.2,0-2.3-0.1-3.5-0.1c-0.3,0-0.6,0.2-0.6,0.6c0,0.3,0.2,0.6,0.6,0.6c1.2,0,2.3-0.1,3.5-0.1
				c0.2,0,0.5-0.2,0.5-0.4C243,192,242.8,191.8,242.5,191.8L242.5,191.8z"/>
		</g>
		<g>
			<path class="st2" d="M220.2,165.5c-1.3-0.3-2.6-0.6-3.8-0.9c-0.6-0.2-1.2-0.4-1.8-0.6c-0.6-0.2-1.2-0.5-1.9-0.8
				c-0.3-0.1-0.7,0-0.8,0.4c-0.1,0.4,0.1,0.7,0.4,0.8c0.6,0.3,1.3,0.5,1.9,0.7c0.7,0.2,1.3,0.4,2,0.5c1.3,0.3,2.7,0.5,4,0.6
				C220.6,166.2,220.6,165.6,220.2,165.5L220.2,165.5z"/>
		</g>
		<g>
			<path class="st2" d="M217.8,158.7c-0.6-0.2-1.2-0.5-1.8-0.7c-0.2-0.1-0.5,0-0.6,0.3c-0.1,0.2,0,0.5,0.3,0.6
				c0.6,0.2,1.3,0.4,1.9,0.6c0.2,0.1,0.5,0,0.5-0.3C218.1,159,218,158.8,217.8,158.7L217.8,158.7z"/>
		</g>
		<g>
			<path class="st2" d="M177.4,160.2c-1-0.4-1.9-0.7-2.9-1.1c-0.4-0.1-0.8,0.1-1,0.4c-0.1,0.4,0,0.8,0.4,1c1,0.3,1.9,0.6,2.9,1
				c0.3,0.1,0.7,0,0.9-0.4C177.9,160.7,177.8,160.3,177.4,160.2L177.4,160.2z"/>
		</g>
		<g>
			<path class="st2" d="M155.6,170.4c-0.1,0-0.3,0-0.4,0c-0.1,0-0.1,0-0.2,0c0,0,0.1,0,0,0c0,0-0.1,0-0.1,0
				c-0.3-0.1-0.5-0.1-0.7-0.2c0,0-0.1,0,0,0c0.1,0,0,0,0,0c-0.1,0-0.1-0.1-0.2-0.1c-0.1-0.1-0.2-0.1-0.3-0.2c0,0-0.1-0.1-0.1-0.1
				c0,0-0.1,0-0.1-0.1c-0.1-0.1,0,0,0,0c0,0-0.1-0.1-0.1-0.1c-0.1-0.1-0.1-0.1-0.2-0.2c-0.2-0.2-0.7-0.3-0.9,0
				c-0.2,0.2-0.3,0.7,0,0.9c0.9,0.8,2.1,1.3,3.4,1.2c0.3,0,0.5-0.2,0.5-0.5C156.1,170.7,155.9,170.4,155.6,170.4L155.6,170.4z"/>
		</g>
		<path class="st16" d="M180.2,130.3c0,0-25.9-20.3-36.2,37.9c-4.3,24.4,5.6,114.9,5.6,114.9s19.5,23.4,66,8.3
			c0,0-1.4-28.7,7.2-41.5s30.1-34.4,25.8-73.1c0,0-2.6-22.3-18.5-19.8"/>
		<path class="st16" d="M164,175.4c0,0,13.6-73,40.8-50"/>
		<path class="st16" d="M182.7,176.8c0,0,14.3-70.2,40.1-53"/>
		<path class="st16" d="M201.3,176.8c0,0,11.5-58.7,33-57.3s4.3,22.9,0,30.1s-17.2,28.7-8.6,50.1"/>
		<path class="st16" d="M233.5,140.2c3.9-4,6.1-8.8,4.5-10.8c-1.6-2-4-4-6.5-4.1c-2.4,0-4.4,2.1-6.8,5.9c-0.8,1.3-3,5.1-2,6.1
			C225.2,139.8,230.9,142.8,233.5,140.2z"/>
		<path class="st16" d="M126.4,305.7c2.6-15.8,4.5-25.7,4.5-25.7s4.8-11.1,17.1-10.9"/>
		<path class="st16" d="M118.4,487.4c-7.3-52.7,4-135.2,10.8-177.1"/>
		<path class="st16" d="M225.1,332.5c2.8-23.4,6.3-38.2,6.3-38.2s2.5-14.8-15.5-17.9"/>
		<path class="st16" d="M227.4,474.4c-12.8-52.9-10.4-106.4-6.3-140.9"/>
		<path class="st16" d="M234.7,163.9c0,0,5.5-1,8.1,8.3c1.4,4.7-0.2,6-4.1,7.1c-4.1,1.2-6.9,2.1-8.1,0
			C229.3,177,227.9,163.9,234.7,163.9z"/>
		<path class="st16" d="M219.9,128c0,0-5.8-4.2-8.6-1.3c-2.9,2.9-7.2,10-5.7,11.5s7.3,2,7.3,2"/>
		<path class="st16" d="M201.5,129.1c0,0-3.9-6-9.6-3.1s-7.9,12.2-6.4,13.6s8.4,2.5,8.4,2.5"/>
		<path class="st16" d="M168.3,132.4c0,0-4.3-1.4-7.2,2.9s-5.7,10-4.3,11.5s7.2,1.4,8.6,1.4S174.1,133.8,168.3,132.4z"/>
		<path class="st16" d="M146.7,326.6c0,0,18,25.9,89.4,2.6"/>
		<path class="st16" d="M122,297c0,0,5.9,13.8,12.8,19.7"/>
	</g>
</g>
</svg>
